<?xml version="1.0" encoding="UTF-8" standalone="no"?>
<svg
   xmlns:dc="http://purl.org/dc/elements/1.1/"
   xmlns:cc="http://creativecommons.org/ns#"
   xmlns:rdf="http://www.w3.org/1999/02/22-rdf-syntax-ns#"
   xmlns:svg="http://www.w3.org/2000/svg"
   xmlns="http://www.w3.org/2000/svg"
   xmlns:sodipodi="http://sodipodi.sourceforge.net/DTD/sodipodi-0.dtd"
   xmlns:inkscape="http://www.inkscape.org/namespaces/inkscape"
   version="1.1"
   id="svg2"
   xml:space="preserve"
   width="922.78131"
   height="93.679466"
   viewBox="0 0 922.78131 93.679466"
   sodipodi:docname="a-velo-tout-est-plus-beau.ai"><metadata
     id="metadata8"><rdf:RDF><cc:Work
         rdf:about=""><dc:format>image/svg+xml</dc:format><dc:type
           rdf:resource="http://purl.org/dc/dcmitype/StillImage" /></cc:Work></rdf:RDF></metadata><defs
     id="defs6"><clipPath
       clipPathUnits="userSpaceOnUse"
       id="clipPath18"><path
         d="M 0,70.26 H 692.086 V 0 H 0 Z"
         id="path16" /></clipPath></defs><sodipodi:namedview
     pagecolor="#ffffff"
     bordercolor="#666666"
     borderopacity="1"
     objecttolerance="10"
     gridtolerance="10"
     guidetolerance="10"
     inkscape:pageopacity="0"
     inkscape:pageshadow="2"
     inkscape:window-width="640"
     inkscape:window-height="480"
     id="namedview4" /><g
     id="g10"
     inkscape:groupmode="layer"
     inkscape:label="a-velo-tout-est-plus-beau"
     transform="matrix(1.3333333,0,0,-1.3333333,0,93.679467)"><g
       id="g12"><g
         id="g14"
         clip-path="url(#clipPath18)"><g
           id="g20"
           transform="translate(23.6118,27.5991)"><path
             d="M 0,0 C -0.444,2.109 -0.686,3.22 -0.722,3.332 -1.019,5.108 -1.221,6.959 -1.333,8.884 -1.888,7.587 -2.592,5.747 -3.442,3.358 -4.295,0.971 -4.757,-0.538 -4.831,-1.167 -4.387,-0.982 -2.777,-0.593 0,0 M 3.221,21.656 C 2.961,21.212 1.74,20.767 -0.444,20.323 -0.667,20.249 -1.13,20.102 -1.833,19.879 c -0.518,-0.222 -0.925,-0.333 -1.221,-0.333 -0.186,0 -0.37,0.036 -0.555,0.111 -0.482,0.185 -0.778,0.833 -0.889,1.944 0,0.036 -0.352,0.685 -1.055,1.943 -0.63,1.073 -0.889,1.722 -0.777,1.943 0,0.075 -0.232,0.333 -0.695,0.778 -0.463,0.444 -0.62,0.814 -0.471,1.11 0.258,0.592 1.166,1.092 2.721,1.5 1.443,0.444 2.535,0.591 3.276,0.444 0.222,-0.037 0.444,-0.388 0.666,-1.055 0.222,-0.926 0.37,-1.444 0.444,-1.555 0.148,-0.222 0.87,-1.147 2.166,-2.776 C 2.813,22.6 3.294,21.84 3.221,21.656 m 8.33,-33.873 c 0,-0.704 -0.168,-1.629 -0.501,-2.778 -0.185,-0.073 -0.463,-0.11 -0.833,-0.11 -0.962,0 -2.165,0.204 -3.609,0.611 -1.519,0.444 -2.554,0.962 -3.109,1.555 -0.26,0.223 -0.5,1.018 -0.722,2.388 -0.333,1.813 -0.704,3.312 -1.11,4.498 -1.111,-0.149 -2.75,-0.528 -4.915,-1.139 -2.166,-0.61 -3.583,-1.101 -4.248,-1.472 -0.445,-1.147 -1.037,-2.573 -1.777,-4.275 -0.112,-0.371 -0.214,-0.723 -0.306,-1.056 -0.093,-0.333 -0.324,-0.61 -0.694,-0.832 h -0.389 c -0.741,0 -1.935,0.324 -3.581,0.971 -1.648,0.648 -2.509,1.064 -2.583,1.25 -0.11,0.406 0.166,1.351 0.833,2.832 0.926,2.147 1.462,3.442 1.611,3.887 -0.703,0.702 -1,1.406 -0.889,2.11 0.112,0.333 1.018,0.925 2.722,1.777 l 5.663,17.715 v 2.164 c 0,0.742 0.463,1.112 1.388,1.112 1.37,0 3.351,-0.325 5.942,-0.972 2.592,-0.648 4.128,-1.213 4.609,-1.694 0.186,-2.998 0.851,-7.46 1.999,-13.382 1.444,-7.33 2.943,-12.384 4.499,-15.16"
             style="fill:#162983;fill-opacity:1;fill-rule:nonzero;stroke:none"
             id="path22" /></g><g
           id="g24"
           transform="translate(83.1387,43.4243)"><path
             d="m 0,0 c -1.444,-3.665 -3.092,-9.274 -4.942,-16.825 -1.666,-6.813 -2.48,-10.681 -2.443,-11.606 v -2.721 c -0.037,-1.184 -0.483,-1.869 -1.333,-2.055 -0.852,-0.148 -2.86,0.204 -6.025,1.055 -3.166,0.853 -4.934,1.537 -5.303,2.054 -0.185,0.297 -0.278,0.704 -0.278,1.223 0,0.517 -0.037,0.869 -0.111,1.055 -1.704,5.404 -2.943,9.81 -3.72,13.216 -0.927,4.22 -1.593,8.884 -2,13.993 0,0.111 -0.037,0.425 -0.111,0.944 -0.074,0.407 -0.11,0.741 -0.11,0.999 0,0.852 0.369,1.407 1.11,1.667 0.333,0.11 1.758,-0.139 4.275,-0.75 2.517,-0.61 3.888,-1.157 4.11,-1.638 0.111,-0.222 0.167,-0.482 0.167,-0.778 0,-0.371 -0.111,-0.842 -0.334,-1.416 -0.222,-0.573 -0.333,-0.953 -0.333,-1.138 0.406,-2.888 0.797,-5.443 1.166,-7.663 0.889,-5.331 1.591,-8.496 2.11,-9.496 0.556,3.221 1.537,7.404 2.943,12.55 0.667,2.48 1.351,4.96 2.055,7.441 0.111,0.666 0.223,1.333 0.334,2 0.258,0.74 0.721,1.202 1.388,1.387 C -6.941,3.646 -5.757,3.313 -3.832,2.5 -1.722,1.61 -0.444,0.777 0,0"
             style="fill:#162983;fill-opacity:1;fill-rule:nonzero;stroke:none"
             id="path26" /></g><g
           id="g28"
           transform="translate(100.6309,39.4819)"><path
             d="m 0,0 c -0.629,0.073 -1.508,-0.925 -2.638,-2.999 -1.13,-2.074 -1.786,-4.053 -1.97,-5.941 1.665,0.073 2.998,0.48 3.997,1.221 0.592,0.444 0.889,2.295 0.889,5.553 C 0.278,-0.796 0.186,-0.075 0,0 M 5.665,16.659 C 5.812,16.326 5.654,15.909 5.192,15.41 4.729,14.909 4.498,14.622 4.498,14.549 4.609,14.326 4.35,13.604 3.72,12.383 3.017,11.013 2.665,10.309 2.665,10.272 2.554,9.051 2.257,8.33 1.777,8.107 1.592,8.032 1.407,7.996 1.221,7.996 0.925,7.996 0.519,8.107 0,8.33 -0.704,8.588 -1.166,8.754 -1.389,8.829 -2.574,9.125 -3.295,9.31 -3.554,9.385 c -0.815,0.259 -1.314,0.573 -1.499,0.943 -0.075,0.185 0.351,1.018 1.277,2.499 1.295,2 1.962,3.036 1.999,3.111 0.222,0.554 0.426,1.11 0.611,1.665 0.296,0.777 0.574,1.185 0.833,1.222 0.74,0.147 1.86,-0.019 3.36,-0.5 1.499,-0.482 2.378,-1.037 2.638,-1.666 m 4.219,-33.651 c 0.334,-0.555 -0.388,-2.203 -2.165,-4.942 -1.926,-2.925 -3.813,-4.904 -5.664,-5.941 -0.222,-0.113 -0.556,-0.168 -1,-0.168 -1.444,0 -3.331,0.445 -5.663,1.334 -2.481,0.887 -4.11,1.85 -4.888,2.886 -2.147,2.777 -3.221,6.627 -3.221,11.55 0,4.665 0.945,8.774 2.833,12.328 2.035,3.887 4.627,5.867 7.774,5.942 C -0.962,6.034 0.425,5.738 2.055,5.108 4.054,4.332 5.701,3.276 6.997,1.943 7.33,1.61 7.644,0.611 7.941,-1.056 c 0.37,-1.777 0.555,-3.516 0.555,-5.219 0,-2.518 -0.408,-4.258 -1.222,-5.219 -3.813,-1.223 -7.7,-1.907 -11.661,-2.055 -0.074,-1.815 0.148,-3.721 0.667,-5.72 0.517,-1.999 1.055,-3.018 1.61,-3.054 0.739,-0.038 1.629,0.573 2.666,1.832 0.924,1.074 1.499,1.981 1.72,2.721 0.259,1.11 0.612,2.258 1.056,3.443 0.592,0.074 1.757,-0.222 3.499,-0.889 1.739,-0.665 2.757,-1.258 3.053,-1.776"
             style="fill:#162983;fill-opacity:1;fill-rule:nonzero;stroke:none"
             id="path30" /></g><g
           id="g32"
           transform="translate(125.5625,55.9741)"><path
             d="M 0,0 C 0,-0.259 -0.083,-0.61 -0.25,-1.055 -0.417,-1.5 -0.519,-1.777 -0.556,-1.888 -0.777,-2.629 -1,-3.776 -1.221,-5.331 v -34.095 c 0,-0.445 0.11,-0.842 0.332,-1.194 0.222,-0.352 0.333,-0.639 0.333,-0.86 0,-2.369 -0.444,-3.646 -1.332,-3.833 -0.333,-0.073 -1.509,0.177 -3.526,0.751 -2.019,0.573 -3.231,1.026 -3.638,1.36 -0.814,0.702 -1.221,1.351 -1.221,1.943 0,0.148 0.073,0.314 0.221,0.501 0.148,0.183 0.223,0.499 0.223,0.943 v 39.148 c 0,0.223 -0.066,0.453 -0.194,0.695 -0.13,0.241 -0.195,0.472 -0.195,0.694 0.074,0.889 0.759,1.48 2.055,1.777 0.37,0.073 1.147,0.073 2.332,0 1.37,-0.111 2.555,-0.315 3.555,-0.611 C -0.759,1.444 0,0.814 0,0"
             style="fill:#162983;fill-opacity:1;fill-rule:nonzero;stroke:none"
             id="path34" /></g><g
           id="g36"
           transform="translate(144.9424,39.5923)"><path
             d="m 0,0 c -1,0 -1.925,-1.212 -2.777,-3.637 -0.852,-2.425 -1.277,-4.748 -1.277,-6.969 0,-2.665 0.314,-5.294 0.944,-7.885 0.702,-2.814 1.518,-4.331 2.443,-4.553 1.185,-0.259 2.24,1.073 3.166,3.998 0.888,2.813 1.332,5.923 1.332,9.329 0,1.888 -0.241,3.757 -0.722,5.608 C 2.442,-1.369 1.407,0 0,0 m 6.219,4.998 c 2.036,-0.962 3.61,-2.907 4.72,-5.831 0.999,-2.665 1.499,-5.812 1.499,-9.439 0,-4.998 -0.851,-9.329 -2.554,-12.994 -1.887,-3.924 -4.239,-5.701 -7.052,-5.331 -1.037,0.26 -2.591,0.573 -4.665,0.944 -1.518,0.186 -2.887,0.463 -4.108,0.833 -2.111,0.554 -3.796,2.35 -5.054,5.386 -1.148,2.813 -1.722,6.108 -1.722,9.885 0,3.812 0.592,7.274 1.778,10.383 1.332,3.407 3.201,5.793 5.607,7.164 0.407,0.221 0.963,0.334 1.667,0.334 0.74,0 2.202,-0.243 4.387,-0.723 1.406,0 3.239,-0.204 5.497,-0.611"
             style="fill:#162983;fill-opacity:1;fill-rule:nonzero;stroke:none"
             id="path38" /></g><g
           id="g40"
           transform="translate(198.9165,39.9809)"><path
             d="m 0,0 c -0.037,-0.665 -0.259,-1.258 -0.666,-1.776 -0.407,-0.519 -0.853,-0.778 -1.333,-0.778 -0.147,0 -0.277,0.019 -0.388,0.056 -0.519,0.185 -1.686,0.277 -3.499,0.277 v -21.934 c 0,0.037 0.12,-0.259 0.362,-0.888 0.239,-0.63 0.36,-1.185 0.36,-1.666 0,-1.074 -0.741,-1.647 -2.221,-1.721 -0.778,-0.037 -2.203,0.296 -4.276,0.999 -2.258,0.739 -3.462,1.424 -3.609,2.055 -0.074,0.258 0.056,0.805 0.389,1.637 0.333,0.833 0.499,1.472 0.499,1.916 v 19.657 h -1.888 c -0.704,0 -1.573,0.621 -2.609,1.861 -1.038,1.241 -1.556,2.23 -1.556,2.972 0,0.554 0.213,1.055 0.64,1.499 0.424,0.443 0.897,0.666 1.415,0.666 h 3.998 v 4.997 c -0.556,0.74 -0.832,1.537 -0.832,2.388 0,0.778 0.333,1.258 0.998,1.444 0.334,0.074 0.797,0.111 1.389,0.111 1.369,0 2.971,-0.213 4.804,-0.638 1.832,-0.426 3.026,-0.861 3.581,-1.305 0.258,-0.223 0.388,-0.481 0.388,-0.778 0,-0.37 -0.296,-0.926 -0.887,-1.666 C -5.535,8.644 -5.849,8.126 -5.886,7.831 V 4.832 h 1.777 c 0.37,0 1.147,-0.666 2.333,-1.999 C -0.592,1.5 0,0.556 0,0"
             style="fill:#162983;fill-opacity:1;fill-rule:nonzero;stroke:none"
             id="path42" /></g><g
           id="g44"
           transform="translate(216.02,39.5923)"><path
             d="m 0,0 c -1,0 -1.925,-1.212 -2.777,-3.637 -0.852,-2.425 -1.277,-4.748 -1.277,-6.969 0,-2.665 0.315,-5.294 0.944,-7.885 0.702,-2.814 1.518,-4.331 2.443,-4.553 1.185,-0.259 2.24,1.073 3.166,3.998 0.888,2.813 1.332,5.923 1.332,9.329 0,1.888 -0.241,3.757 -0.722,5.608 C 2.442,-1.369 1.407,0 0,0 m 6.219,4.998 c 2.036,-0.962 3.61,-2.907 4.72,-5.831 0.999,-2.665 1.499,-5.812 1.499,-9.439 0,-4.998 -0.851,-9.329 -2.554,-12.994 -1.887,-3.924 -4.24,-5.701 -7.052,-5.331 -1.037,0.26 -2.591,0.573 -4.665,0.944 -1.518,0.186 -2.887,0.463 -4.108,0.833 -2.111,0.554 -3.796,2.35 -5.054,5.386 -1.148,2.813 -1.722,6.108 -1.722,9.885 0,3.812 0.592,7.274 1.778,10.383 1.332,3.407 3.201,5.793 5.607,7.164 0.407,0.221 0.963,0.334 1.667,0.334 0.74,0 2.202,-0.243 4.387,-0.723 1.406,0 3.239,-0.204 5.497,-0.611"
             style="fill:#162983;fill-opacity:1;fill-rule:nonzero;stroke:none"
             id="path46" /></g><g
           id="g48"
           transform="translate(261.3867,44.4799)"><path
             d="m 0,0 c 0.259,-0.371 0.389,-0.741 0.389,-1.111 0,-0.37 -0.214,-0.814 -0.639,-1.333 -0.426,-0.518 -0.639,-0.852 -0.639,-1 v -25.82 c 0,-0.223 0.119,-0.611 0.361,-1.167 0.241,-0.555 0.361,-0.962 0.361,-1.222 0,-0.666 -0.574,-1.146 -1.721,-1.443 -0.593,-0.148 -1.982,0.054 -4.165,0.611 -2.369,0.592 -3.665,1.184 -3.887,1.777 -0.186,0.48 -0.131,1.128 0.167,1.943 0.369,0.963 0.555,1.629 0.555,1.999 0,0.37 -0.056,0.851 -0.167,1.443 -0.555,-1.85 -1.333,-3.498 -2.332,-4.941 -1.222,-1.702 -2.444,-2.555 -3.665,-2.555 -1.26,0 -2.888,0.426 -4.887,1.277 -1.999,0.852 -3.147,1.629 -3.442,2.333 -1.038,2.368 -1.555,11.124 -1.555,26.266 -0.297,0.702 -0.445,1.406 -0.445,2.109 0,1.148 0.426,1.925 1.277,2.333 0.259,0.111 0.723,0.166 1.389,0.166 1.257,0 2.756,-0.194 4.498,-0.583 1.739,-0.389 2.795,-0.786 3.165,-1.194 0.184,-0.221 0.277,-0.463 0.277,-0.722 0,-0.408 -0.277,-1.064 -0.832,-1.97 -0.555,-0.908 -0.833,-1.565 -0.833,-1.972 -0.075,-14.586 0.036,-21.933 0.333,-22.046 0.518,-0.185 1.822,1.528 3.915,5.137 2.091,3.61 3.137,6.358 3.137,8.247 v 10.383 c -0.481,0.481 -0.722,1.073 -0.722,1.777 0,1.444 0.629,2.424 1.888,2.943 0.148,0.075 0.369,0.112 0.666,0.112 1,0 2.462,-0.232 4.387,-0.695 C -1.241,0.619 -0.187,0.259 0,0"
             style="fill:#162983;fill-opacity:1;fill-rule:nonzero;stroke:none"
             id="path50" /></g><g
           id="g52"
           transform="translate(289.3179,39.9809)"><path
             d="m 0,0 c -0.038,-0.665 -0.259,-1.258 -0.666,-1.776 -0.407,-0.519 -0.853,-0.778 -1.333,-0.778 -0.148,0 -0.278,0.019 -0.388,0.056 -0.519,0.185 -1.686,0.277 -3.499,0.277 v -21.934 c 0,0.037 0.119,-0.259 0.361,-0.888 0.24,-0.63 0.36,-1.185 0.36,-1.666 0,-1.074 -0.74,-1.647 -2.22,-1.721 -0.778,-0.037 -2.203,0.296 -4.277,0.999 -2.258,0.739 -3.461,1.424 -3.608,2.055 -0.075,0.258 0.055,0.805 0.389,1.637 0.333,0.833 0.499,1.472 0.499,1.916 v 19.657 h -1.888 c -0.704,0 -1.574,0.621 -2.609,1.861 -1.038,1.241 -1.557,2.23 -1.557,2.972 0,0.554 0.214,1.055 0.64,1.499 0.425,0.443 0.897,0.666 1.416,0.666 h 3.998 v 4.997 c -0.556,0.74 -0.833,1.537 -0.833,2.388 0,0.778 0.334,1.258 0.999,1.444 0.333,0.074 0.797,0.111 1.388,0.111 1.37,0 2.972,-0.213 4.804,-0.638 1.833,-0.426 3.027,-0.861 3.582,-1.305 0.258,-0.223 0.388,-0.481 0.388,-0.778 0,-0.37 -0.296,-0.926 -0.888,-1.666 C -5.535,8.644 -5.849,8.126 -5.886,7.831 V 4.832 h 1.777 c 0.369,0 1.147,-0.666 2.333,-1.999 C -0.592,1.5 0,0.556 0,0"
             style="fill:#162983;fill-opacity:1;fill-rule:nonzero;stroke:none"
             id="path54" /></g><g
           id="g56"
           transform="translate(323.5801,39.4819)"><path
             d="m 0,0 c -0.629,0.073 -1.508,-0.925 -2.638,-2.999 -1.13,-2.074 -1.786,-4.053 -1.97,-5.941 1.665,0.073 2.998,0.48 3.997,1.221 0.591,0.444 0.889,2.295 0.889,5.553 C 0.278,-0.796 0.185,-0.075 0,0 m 9.884,-16.992 c 0.333,-0.555 -0.388,-2.203 -2.166,-4.942 -1.925,-2.925 -3.813,-4.904 -5.663,-5.941 -0.222,-0.113 -0.556,-0.168 -1,-0.168 -1.444,0 -3.332,0.445 -5.663,1.334 -2.481,0.887 -4.11,1.85 -4.888,2.886 -2.148,2.777 -3.221,6.627 -3.221,11.55 0,4.665 0.945,8.774 2.833,12.328 2.035,3.887 4.627,5.867 7.774,5.942 C -0.963,6.034 0.425,5.738 2.055,5.108 4.053,4.332 5.701,3.276 6.997,1.943 7.33,1.61 7.644,0.611 7.941,-1.056 c 0.37,-1.777 0.555,-3.516 0.555,-5.219 0,-2.518 -0.408,-4.258 -1.222,-5.219 -3.813,-1.223 -7.7,-1.907 -11.661,-2.055 -0.074,-1.815 0.148,-3.721 0.666,-5.72 0.518,-1.999 1.055,-3.018 1.611,-3.054 0.739,-0.038 1.629,0.573 2.666,1.832 0.924,1.074 1.499,1.981 1.72,2.721 0.259,1.11 0.612,2.258 1.056,3.443 0.591,0.074 1.757,-0.222 3.499,-0.889 1.739,-0.665 2.757,-1.258 3.053,-1.776"
             style="fill:#162983;fill-opacity:1;fill-rule:nonzero;stroke:none"
             id="path58" /></g><g
           id="g60"
           transform="translate(361.1724,18.2695)"><path
             d="m 0,0 c 0,-2.037 -0.676,-3.665 -2.026,-4.887 -1.352,-1.221 -3.248,-1.851 -5.692,-1.888 -0.594,0 -1.241,0.093 -1.943,0.278 -1.26,0.333 -1.927,0.518 -2,0.556 -0.666,0.147 -1.342,0.304 -2.027,0.471 -0.686,0.166 -1.269,0.452 -1.749,0.861 -0.814,0.74 -1.611,1.757 -2.388,3.054 -0.629,1.036 -1.24,2.091 -1.833,3.164 -0.592,1.074 -0.887,1.722 -0.887,1.945 0,0.517 0.369,0.906 1.11,1.166 0.185,0.074 0.518,0.111 1,0.111 1.11,0 2.507,-0.121 4.193,-0.36 1.682,-0.242 2.599,-0.445 2.748,-0.612 0.147,-0.166 0.351,-1.231 0.61,-3.193 0.223,-1.703 0.612,-2.554 1.167,-2.554 0.851,0 1.277,1.147 1.277,3.443 0,2.924 -0.778,4.756 -2.332,5.497 -3.554,1.666 -5.886,3.146 -6.998,4.442 -1.369,1.592 -2.054,3.998 -2.054,7.219 0,2.111 0.555,4.1 1.666,5.97 1.11,1.868 2.424,2.989 3.942,3.359 0.667,0.147 2.814,-0.555 6.443,-2.11 0.333,-0.11 1.313,-0.315 2.942,-0.611 1.147,-0.221 1.962,-0.61 2.444,-1.166 0.702,-0.852 1.111,-2.203 1.221,-4.053 0.036,-1.371 0.056,-2.74 0.056,-4.109 0.258,-1.26 0.388,-2 0.388,-2.222 0,-1.037 -0.499,-1.63 -1.499,-1.776 -0.518,-0.075 -1.536,0.129 -3.053,0.609 -1.667,0.557 -2.722,1.13 -3.166,1.722 -0.111,0.148 -0.223,1.537 -0.333,4.166 -0.111,2.48 -0.371,3.72 -0.778,3.72 -0.555,0 -1.074,-0.722 -1.554,-2.166 -0.483,-1.443 -0.722,-2.942 -0.722,-4.497 0,-1.964 0.425,-3.203 1.276,-3.722 1.814,-0.998 3.619,-2.009 5.415,-3.025 C -3.341,7.783 -2.092,6.738 -1.389,5.663 -0.463,4.257 0,2.369 0,0"
             style="fill:#162983;fill-opacity:1;fill-rule:nonzero;stroke:none"
             id="path62" /></g><g
           id="g64"
           transform="translate(386.437,39.9809)"><path
             d="m 0,0 c -0.037,-0.665 -0.258,-1.258 -0.665,-1.776 -0.408,-0.519 -0.853,-0.778 -1.333,-0.778 -0.148,0 -0.278,0.019 -0.389,0.056 -0.518,0.185 -1.685,0.277 -3.499,0.277 v -21.934 c 0,0.037 0.12,-0.259 0.362,-0.888 0.24,-0.63 0.36,-1.185 0.36,-1.666 0,-1.074 -0.741,-1.647 -2.221,-1.721 -0.777,-0.037 -2.203,0.296 -4.276,0.999 -2.258,0.739 -3.461,1.424 -3.609,2.055 -0.074,0.258 0.056,0.805 0.389,1.637 0.333,0.833 0.5,1.472 0.5,1.916 v 19.657 h -1.889 c -0.703,0 -1.573,0.621 -2.609,1.861 -1.037,1.241 -1.556,2.23 -1.556,2.972 0,0.554 0.214,1.055 0.64,1.499 0.425,0.443 0.897,0.666 1.415,0.666 h 3.999 v 4.997 c -0.557,0.74 -0.833,1.537 -0.833,2.388 0,0.778 0.333,1.258 0.999,1.444 0.333,0.074 0.796,0.111 1.388,0.111 1.369,0 2.972,-0.213 4.804,-0.638 1.833,-0.426 3.027,-0.861 3.582,-1.305 0.258,-0.223 0.388,-0.481 0.388,-0.778 0,-0.37 -0.297,-0.926 -0.888,-1.666 C -5.534,8.644 -5.849,8.126 -5.886,7.831 V 4.832 h 1.778 c 0.369,0 1.146,-0.666 2.333,-1.999 C -0.592,1.5 0,0.556 0,0"
             style="fill:#162983;fill-opacity:1;fill-rule:nonzero;stroke:none"
             id="path66" /></g><g
           id="g68"
           transform="translate(422.9761,37.8716)"><path
             d="m 0,0 c -1.332,0.147 -2.831,-6.534 -4.497,-20.046 2.072,0.923 3.951,2.961 5.636,6.107 1.684,3.147 2.526,6.072 2.526,8.775 C 3.665,-2.019 2.443,-0.297 0,0 m 1.223,-25.822 c -0.371,-0.184 -0.722,-0.277 -1.056,-0.277 -0.964,0 -2.573,1.13 -4.831,3.387 v -10.717 c 0.037,-0.296 0.203,-0.824 0.5,-1.583 0.296,-0.758 0.444,-1.323 0.444,-1.694 0,-0.777 -0.519,-1.166 -1.554,-1.166 -0.927,0 -2.278,0.26 -4.054,0.778 -1.074,0.333 -2.148,0.685 -3.222,1.054 -0.925,0.261 -1.463,0.833 -1.609,1.723 -0.074,0.37 0.063,1.092 0.416,2.165 0.35,1.073 0.527,1.685 0.527,1.833 v 36.15 c 0,1.221 -0.093,1.999 -0.278,2.332 -0.555,0.925 -0.722,1.572 -0.499,1.943 0.148,0.296 0.629,0.445 1.443,0.445 0.852,0 2.129,-0.167 3.833,-0.5 1.961,-0.408 3.016,-0.612 3.164,-0.612 0.629,-0.074 1.111,-0.518 1.444,-1.332 0.037,-0.11 0.055,-0.37 0.055,-0.777 0,-1.518 -0.221,-3.777 -0.666,-6.775 0.889,1.777 1.777,3.535 2.666,5.276 1.184,2.257 2.277,3.294 3.277,3.109 7.255,-1.518 10.883,-6.034 10.883,-13.549 0,-4.258 -1.138,-8.543 -3.415,-12.855 -2.277,-4.313 -4.767,-7.099 -7.468,-8.358"
             style="fill:#162983;fill-opacity:1;fill-rule:nonzero;stroke:none"
             id="path70" /></g><g
           id="g72"
           transform="translate(452.4614,55.9741)"><path
             d="M 0,0 C 0,-0.259 -0.083,-0.61 -0.249,-1.055 -0.417,-1.5 -0.519,-1.777 -0.556,-1.888 -0.777,-2.629 -1,-3.776 -1.221,-5.331 v -34.095 c 0,-0.445 0.111,-0.842 0.332,-1.194 0.223,-0.352 0.333,-0.639 0.333,-0.86 0,-2.369 -0.444,-3.646 -1.332,-3.833 -0.333,-0.073 -1.508,0.177 -3.525,0.751 -2.02,0.573 -3.232,1.026 -3.639,1.36 -0.814,0.702 -1.22,1.351 -1.22,1.943 0,0.148 0.073,0.314 0.221,0.501 0.148,0.183 0.223,0.499 0.223,0.943 v 39.148 c 0,0.223 -0.067,0.453 -0.195,0.695 -0.13,0.241 -0.194,0.472 -0.194,0.694 0.073,0.889 0.758,1.48 2.055,1.777 0.369,0.073 1.146,0.073 2.332,0 C -4.461,2.388 -3.276,2.184 -2.276,1.888 -0.759,1.444 0,0.814 0,0"
             style="fill:#162983;fill-opacity:1;fill-rule:nonzero;stroke:none"
             id="path74" /></g><g
           id="g76"
           transform="translate(484.9468,44.4799)"><path
             d="m 0,0 c 0.259,-0.371 0.389,-0.741 0.389,-1.111 0,-0.37 -0.214,-0.814 -0.639,-1.333 -0.426,-0.518 -0.639,-0.852 -0.639,-1 v -25.82 c 0,-0.223 0.119,-0.611 0.362,-1.167 0.24,-0.555 0.36,-0.962 0.36,-1.222 0,-0.666 -0.574,-1.146 -1.721,-1.443 -0.592,-0.148 -1.981,0.054 -4.166,0.611 -2.368,0.592 -3.664,1.184 -3.885,1.777 -0.187,0.48 -0.131,1.128 0.166,1.943 0.369,0.963 0.555,1.629 0.555,1.999 0,0.37 -0.056,0.851 -0.167,1.443 -0.554,-1.85 -1.333,-3.498 -2.332,-4.941 -1.222,-1.702 -2.443,-2.555 -3.665,-2.555 -1.26,0 -2.888,0.426 -4.887,1.277 -1.999,0.852 -3.146,1.629 -3.442,2.333 -1.037,2.368 -1.555,11.124 -1.555,26.266 -0.297,0.702 -0.445,1.406 -0.445,2.109 0,1.148 0.426,1.925 1.277,2.333 0.259,0.111 0.723,0.166 1.389,0.166 1.258,0 2.757,-0.194 4.498,-0.583 1.739,-0.389 2.795,-0.786 3.165,-1.194 0.185,-0.221 0.278,-0.463 0.278,-0.722 0,-0.408 -0.278,-1.064 -0.834,-1.97 -0.554,-0.908 -0.833,-1.565 -0.833,-1.972 -0.074,-14.586 0.037,-21.933 0.334,-22.046 0.518,-0.185 1.823,1.528 3.915,5.137 2.091,3.61 3.137,6.358 3.137,8.247 v 10.383 c -0.481,0.481 -0.721,1.073 -0.721,1.777 0,1.444 0.628,2.424 1.887,2.943 0.148,0.075 0.369,0.112 0.666,0.112 1,0 2.462,-0.232 4.387,-0.695 C -1.24,0.619 -0.187,0.259 0,0"
             style="fill:#162983;fill-opacity:1;fill-rule:nonzero;stroke:none"
             id="path78" /></g><g
           id="g80"
           transform="translate(512.3208,18.2695)"><path
             d="m 0,0 c 0,-2.037 -0.676,-3.665 -2.026,-4.887 -1.352,-1.221 -3.248,-1.851 -5.693,-1.888 -0.593,0 -1.24,0.093 -1.942,0.278 -1.26,0.333 -1.927,0.518 -2,0.556 -0.667,0.147 -1.343,0.304 -2.027,0.471 -0.686,0.166 -1.269,0.452 -1.749,0.861 -0.815,0.74 -1.611,1.757 -2.388,3.054 -0.629,1.036 -1.24,2.091 -1.832,3.164 -0.593,1.074 -0.889,1.722 -0.889,1.945 0,0.517 0.369,0.906 1.11,1.166 0.186,0.074 0.518,0.111 1,0.111 1.111,0 2.507,-0.121 4.193,-0.36 1.683,-0.242 2.599,-0.445 2.749,-0.612 0.147,-0.166 0.351,-1.231 0.61,-3.193 0.223,-1.703 0.612,-2.554 1.167,-2.554 0.851,0 1.277,1.147 1.277,3.443 0,2.924 -0.778,4.756 -2.332,5.497 -3.554,1.666 -5.886,3.146 -6.998,4.442 -1.37,1.592 -2.054,3.998 -2.054,7.219 0,2.111 0.554,4.1 1.666,5.97 1.11,1.868 2.424,2.989 3.942,3.359 0.667,0.147 2.814,-0.555 6.443,-2.11 0.333,-0.11 1.313,-0.315 2.942,-0.611 1.147,-0.221 1.962,-0.61 2.444,-1.166 0.702,-0.852 1.111,-2.203 1.221,-4.053 0.036,-1.371 0.056,-2.74 0.056,-4.109 0.258,-1.26 0.388,-2 0.388,-2.222 0,-1.037 -0.499,-1.63 -1.499,-1.776 -0.518,-0.075 -1.537,0.129 -3.053,0.609 -1.667,0.557 -2.722,1.13 -3.166,1.722 -0.111,0.148 -0.223,1.537 -0.333,4.166 -0.112,2.48 -0.372,3.72 -0.778,3.72 -0.555,0 -1.074,-0.722 -1.554,-2.166 -0.483,-1.443 -0.722,-2.942 -0.722,-4.497 0,-1.964 0.425,-3.203 1.276,-3.722 1.814,-0.998 3.619,-2.009 5.415,-3.025 C -3.341,7.783 -2.092,6.738 -1.389,5.663 -0.463,4.257 0,2.369 0,0"
             style="fill:#162983;fill-opacity:1;fill-rule:nonzero;stroke:none"
             id="path82" /></g><g
           id="g84"
           transform="translate(551.5815,40.4814)"><path
             d="M 0,0 C -1.408,-0.556 -2.999,-1.686 -4.775,-3.387 -6.553,-5.09 -7.683,-6.516 -8.163,-7.663 v -14.993 c 0.259,-0.297 0.703,-0.63 1.332,-1 1.223,-0.223 2.702,2.499 4.443,8.162 1.701,5.517 2.555,10.07 2.555,13.661 C 0.167,-1.092 0.11,-0.481 0,0 m 6.497,0.333 c 0.851,-1.777 1.276,-3.979 1.276,-6.607 0,-3.481 -0.684,-7.239 -2.053,-11.273 -1.333,-3.777 -2.852,-6.739 -4.554,-8.886 -0.186,-0.629 -0.297,-1.016 -0.334,-1.166 -0.147,-0.407 -0.37,-0.74 -0.665,-0.999 -0.52,-0.407 -1.389,-0.629 -2.611,-0.666 -1.074,0 -2.128,0.333 -3.164,0.998 -0.113,0.076 -0.964,0.723 -2.555,1.945 0.036,-0.26 0.166,-0.666 0.389,-1.222 0.111,-0.37 0.111,-0.703 0,-0.999 -0.297,-0.814 -0.778,-1.259 -1.444,-1.333 -0.852,-0.073 -2.388,0.213 -4.609,0.86 -2.222,0.649 -3.498,1.232 -3.831,1.749 -0.223,0.333 -0.056,0.981 0.499,1.944 0.185,0.333 0.278,1.111 0.278,2.333 v 37.316 c 0,0.185 -0.177,0.527 -0.528,1.027 -0.353,0.5 -0.491,0.934 -0.417,1.304 0.222,1.186 0.981,1.778 2.278,1.778 1.221,0 2.822,-0.353 4.803,-1.056 1.98,-0.702 3.137,-1.424 3.471,-2.165 0.147,-0.333 0.027,-0.925 -0.362,-1.777 -0.388,-0.853 -0.62,-1.555 -0.694,-2.11 V 2.221 C -5.332,5.22 -2.925,6.608 -1.111,6.386 0.147,6.237 1.499,5.608 2.942,4.498 4.534,3.35 5.72,1.961 6.497,0.333"
             style="fill:#162983;fill-opacity:1;fill-rule:nonzero;stroke:none"
             id="path86" /></g><g
           id="g88"
           transform="translate(579.1226,39.4819)"><path
             d="m 0,0 c -0.629,0.073 -1.509,-0.925 -2.638,-2.999 -1.13,-2.074 -1.786,-4.053 -1.97,-5.941 1.665,0.073 2.998,0.48 3.997,1.221 0.591,0.444 0.889,2.295 0.889,5.553 C 0.278,-0.796 0.186,-0.075 0,0 m 9.884,-16.992 c 0.334,-0.555 -0.389,-2.203 -2.165,-4.942 -1.926,-2.925 -3.814,-4.904 -5.664,-5.941 -0.223,-0.113 -0.556,-0.168 -1,-0.168 -1.444,0 -3.331,0.445 -5.663,1.334 -2.482,0.887 -4.111,1.85 -4.888,2.886 -2.148,2.777 -3.221,6.627 -3.221,11.55 0,4.665 0.945,8.774 2.832,12.328 2.036,3.887 4.628,5.867 7.775,5.942 C -0.963,6.034 0.425,5.738 2.055,5.108 4.054,4.332 5.701,3.276 6.996,1.943 7.33,1.61 7.644,0.611 7.941,-1.056 c 0.37,-1.777 0.555,-3.516 0.555,-5.219 0,-2.518 -0.408,-4.258 -1.222,-5.219 -3.812,-1.223 -7.7,-1.907 -11.661,-2.055 -0.075,-1.815 0.148,-3.721 0.666,-5.72 0.518,-1.999 1.056,-3.018 1.611,-3.054 0.74,-0.038 1.629,0.573 2.666,1.832 0.923,1.074 1.499,1.981 1.72,2.721 0.259,1.11 0.612,2.258 1.055,3.443 0.593,0.074 1.759,-0.222 3.499,-0.889 1.74,-0.665 2.758,-1.258 3.054,-1.776"
             style="fill:#162983;fill-opacity:1;fill-rule:nonzero;stroke:none"
             id="path90" /></g><g
           id="g92"
           transform="translate(613.3843,30.2085)"><path
             d="m 0,0 c -1.814,-0.704 -3.37,-1.777 -4.664,-3.221 -0.964,-1.185 -1.926,-2.351 -2.888,-3.499 -0.777,-0.777 -1.51,-1.785 -2.194,-3.027 -0.685,-1.24 -1.027,-2.156 -1.027,-2.748 0,-0.296 0.111,-0.444 0.334,-0.444 0.777,0 2.516,1.674 5.219,5.026 2.702,3.35 4.442,5.987 5.22,7.913 m 8.885,-16.215 c -0.037,-0.519 -0.26,-0.961 -0.666,-1.332 -0.408,-0.37 -0.87,-0.519 -1.389,-0.446 -4.591,0.631 -7.144,1.501 -7.663,2.612 -0.075,0.146 -0.111,0.295 -0.111,0.443 0,0.185 0.084,0.389 0.25,0.61 0.167,0.223 0.267,0.417 0.304,0.584 0.037,0.166 0.113,0.324 0.223,0.472 0.073,0.296 0.093,0.944 0.056,1.944 -0.445,-0.334 -1.111,-1.222 -1.999,-2.667 -0.926,-1.59 -1.741,-2.702 -2.444,-3.331 -1.185,-1.11 -2.536,-1.665 -4.053,-1.665 -0.888,0 -1.759,0.351 -2.61,1.055 -0.408,0.332 -1.13,1.054 -2.166,2.165 -1.777,1.999 -2.739,3.091 -2.888,3.276 -0.777,1.036 -1.166,2.018 -1.166,2.945 0,0.294 0.037,0.591 0.112,0.887 0.702,3.257 2.887,6.348 6.552,9.273 2.666,2.111 6.442,4.35 11.328,6.72 0,1.184 -0.297,1.943 -0.888,2.276 C -0.703,9.829 -1.999,9.412 -4.221,8.357 -6.441,7.302 -7.996,6.404 -8.885,5.664 -9.182,5.368 -9.662,4.96 -10.329,4.442 c -0.629,-0.37 -1.203,-0.481 -1.721,-0.333 -0.407,0.111 -1.277,0.777 -2.61,1.998 -1.332,1.223 -2.055,2.037 -2.166,2.444 -0.296,1 0.019,1.778 0.944,2.332 0.036,0.037 0.778,0.259 2.222,0.667 1.369,0.74 2.739,1.48 4.108,2.221 2.888,1.369 5.331,2.11 7.33,2.221 0.852,0.037 1.815,-0.408 2.888,-1.332 C 1.628,13.808 2.6,12.966 3.582,12.133 4.562,11.3 5.571,10.495 6.608,9.717 7.792,8.681 8.386,7.682 8.386,6.719 v -20.99 c 0.369,-0.964 0.535,-1.611 0.499,-1.944"
             style="fill:#162983;fill-opacity:1;fill-rule:nonzero;stroke:none"
             id="path94" /></g><g
           id="g96"
           transform="translate(654.8638,44.4799)"><path
             d="m 0,0 c 0.259,-0.371 0.389,-0.741 0.389,-1.111 0,-0.37 -0.214,-0.814 -0.639,-1.333 -0.426,-0.518 -0.639,-0.852 -0.639,-1 v -25.82 c 0,-0.223 0.119,-0.611 0.362,-1.167 0.24,-0.555 0.36,-0.962 0.36,-1.222 0,-0.666 -0.574,-1.146 -1.721,-1.443 -0.592,-0.148 -1.981,0.054 -4.166,0.611 -2.368,0.592 -3.664,1.184 -3.885,1.777 -0.187,0.48 -0.131,1.128 0.166,1.943 0.369,0.963 0.555,1.629 0.555,1.999 0,0.37 -0.056,0.851 -0.167,1.443 -0.554,-1.85 -1.333,-3.498 -2.332,-4.941 -1.222,-1.702 -2.443,-2.555 -3.665,-2.555 -1.26,0 -2.888,0.426 -4.887,1.277 -1.999,0.852 -3.146,1.629 -3.443,2.333 -1.036,2.368 -1.554,11.124 -1.554,26.266 -0.297,0.702 -0.445,1.406 -0.445,2.109 0,1.148 0.426,1.925 1.277,2.333 0.259,0.111 0.722,0.166 1.389,0.166 1.258,0 2.757,-0.194 4.498,-0.583 1.739,-0.389 2.795,-0.786 3.165,-1.194 0.185,-0.221 0.278,-0.463 0.278,-0.722 0,-0.408 -0.278,-1.064 -0.834,-1.97 -0.554,-0.908 -0.833,-1.565 -0.833,-1.972 -0.074,-14.586 0.037,-21.933 0.334,-22.046 0.518,-0.185 1.823,1.528 3.915,5.137 2.091,3.61 3.137,6.358 3.137,8.247 v 10.383 c -0.481,0.481 -0.721,1.073 -0.721,1.777 0,1.444 0.628,2.424 1.887,2.943 0.148,0.075 0.369,0.112 0.666,0.112 1,0 2.462,-0.232 4.387,-0.695 C -1.24,0.619 -0.187,0.259 0,0"
             style="fill:#162983;fill-opacity:1;fill-rule:nonzero;stroke:none"
             id="path98" /></g><g
           id="g100"
           transform="translate(686.4604,21.1015)"><path
             d="m 0,0 c 0.111,-0.333 0.111,-1.241 0,-2.722 -0.147,-1.924 -0.222,-3.109 -0.222,-3.552 0,-1.482 -0.075,-2.629 -0.221,-3.444 -0.149,-0.813 -0.612,-1.295 -1.389,-1.444 -0.444,-0.11 -1.722,0.26 -3.831,1.11 -2.221,0.927 -3.554,1.723 -3.998,2.389 -0.26,0.407 -0.167,1.073 0.276,1.999 0.223,0.406 0.352,1.091 0.389,2.055 -0.074,0.813 -0.074,2.368 0,4.665 0.148,1.331 0.704,1.979 1.667,1.943 C -6.294,2.924 -4.85,2.507 -2.998,1.749 -1.147,0.99 -0.147,0.407 0,0 M 0,8.052 C -0.074,6.682 -0.426,5.922 -1.055,5.775 -1.24,5.738 -1.426,5.719 -1.609,5.719 c -1.075,0 -2.426,0.426 -4.054,1.278 -1.63,0.851 -2.962,1.868 -3.998,3.053 -0.445,0.482 -0.445,1.37 0,2.667 0.444,1.294 0.665,1.961 0.665,1.998 v 20.99 c 0,0.962 0.556,1.629 1.667,2 0.223,0.073 0.536,0.11 0.944,0.11 1.036,0 2.221,-0.221 3.553,-0.666 1.333,-0.444 2.166,-0.925 2.499,-1.444 0.073,-0.111 0.111,-1.11 0.111,-2.998 V 10.05 c 0,-0.221 0.037,-0.546 0.112,-0.971 C -0.037,8.653 0,8.311 0,8.052"
             style="fill:#162983;fill-opacity:1;fill-rule:nonzero;stroke:none"
             id="path102" /></g></g></g></g></svg>
