<?xml version="1.0" encoding="UTF-8" standalone="no"?>
<svg
   xmlns:dc="http://purl.org/dc/elements/1.1/"
   xmlns:cc="http://creativecommons.org/ns#"
   xmlns:rdf="http://www.w3.org/1999/02/22-rdf-syntax-ns#"
   xmlns:svg="http://www.w3.org/2000/svg"
   xmlns="http://www.w3.org/2000/svg"
   xmlns:sodipodi="http://sodipodi.sourceforge.net/DTD/sodipodi-0.dtd"
   xmlns:inkscape="http://www.inkscape.org/namespaces/inkscape"
   version="1.1"
   id="svg2"
   xml:space="preserve"
   width="1587.4"
   height="158.51334"
   viewBox="0 0 1587.4 158.51334"
   sodipodi:docname="federation-francaise-de-cyclotourisme.ai"><metadata
     id="metadata8"><rdf:RDF><cc:Work
         rdf:about=""><dc:format>image/svg+xml</dc:format><dc:type
           rdf:resource="http://purl.org/dc/dcmitype/StillImage" /></cc:Work></rdf:RDF></metadata><defs
     id="defs6"><clipPath
       clipPathUnits="userSpaceOnUse"
       id="clipPath26"><path
         d="M 0,118.885 H 1190.55 V 0 H 0 Z"
         id="path24" /></clipPath></defs><sodipodi:namedview
     pagecolor="#ffffff"
     bordercolor="#666666"
     borderopacity="1"
     objecttolerance="10"
     gridtolerance="10"
     guidetolerance="10"
     inkscape:pageopacity="0"
     inkscape:pageshadow="2"
     inkscape:window-width="640"
     inkscape:window-height="480"
     id="namedview4" /><g
     id="g10"
     inkscape:groupmode="layer"
     inkscape:label="federation-francaise-de-cyclotourisme"
     transform="matrix(1.3333333,0,0,-1.3333333,0,158.51333)"><g
       id="g12"
       transform="translate(8.0503,72.1499)"><path
         d="m 0,0 v -11.704 h 10.636 v -1.922 H 0 V -30.284 H -2.05 V 1.921 h 12.985 l 0,-1.921 z"
         style="fill:#162983;fill-opacity:1;fill-rule:nonzero;stroke:none"
         id="path14" /></g><g
       id="g16"
       transform="translate(44.3179,84.0235)"><path
         d="m 0,0 -5.297,-6.193 -1.622,0.726 4.313,6.279 z M -8.756,-11.874 V -23.578 H 4.228 V -25.5 H -8.756 V -40.235 H 4.57 v -1.923 H -10.807 V -9.952 H 4.57 v -1.922 z"
         style="fill:#162983;fill-opacity:1;fill-rule:nonzero;stroke:none"
         id="path18" /></g><g
       id="g20"><g
         id="g22"
         clip-path="url(#clipPath26)"><g
           id="g28"
           transform="translate(69.4805,43.7881)"><path
             d="m 0,0 c 4.229,0 7.731,0.854 10.807,3.887 2.733,2.733 4.271,6.406 4.271,10.251 0,4.101 -1.623,7.945 -4.656,10.721 C 7.347,27.635 4.015,28.362 0,28.362 H -3.716 V 0 Z m -5.767,30.283 h 5.81 c 4.698,0 8.414,-0.768 11.959,-4.057 3.375,-3.161 5.126,-7.475 5.126,-12.088 0,-4.443 -1.709,-8.671 -4.955,-11.789 C 8.628,-1.068 4.827,-1.922 0.043,-1.922 h -5.81 z"
             style="fill:#162983;fill-opacity:1;fill-rule:nonzero;stroke:none"
             id="path30" /></g><g
           id="g32"
           transform="translate(110.918,84.0235)"><path
             d="m 0,0 -5.296,-6.193 -1.623,0.726 4.313,6.279 z M -8.756,-11.874 V -23.578 H 4.229 V -25.5 H -8.756 V -40.235 H 4.57 v -1.923 H -10.807 V -9.952 H 4.57 v -1.922 z"
             style="fill:#162983;fill-opacity:1;fill-rule:nonzero;stroke:none"
             id="path34" /></g><g
           id="g36"
           transform="translate(134.9702,59.0367)"><path
             d="m 0,0 c 2.007,0 4.015,0.085 5.638,1.495 1.538,1.238 2.264,3.161 2.264,5.083 0,2.392 -1.111,4.783 -3.417,5.809 -1.709,0.811 -3.887,0.726 -5.766,0.726 H -2.605 L -2.605,0 Z M 11.276,-17.171 H 8.927 L -1.58,-1.922 h -1.025 v -15.249 h -2.051 v 32.206 h 4.015 c 2.606,0 5.168,-0.043 7.347,-1.623 2.306,-1.623 3.246,-4.186 3.246,-6.92 0,-5.596 -3.887,-8.499 -9.226,-8.414 z"
             style="fill:#162983;fill-opacity:1;fill-rule:nonzero;stroke:none"
             id="path38" /></g><g
           id="g40"
           transform="translate(169.9565,69.9283)"><path
             d="m 0,0 -6.321,-15.547 h 12.6 z m -7.09,-17.469 -4.314,-10.594 h -2.093 L 0,5.211 13.455,-28.063 h -2.093 l -4.315,10.594 z"
             style="fill:#162983;fill-opacity:1;fill-rule:nonzero;stroke:none"
             id="path42" /></g><g
           id="g44"
           transform="translate(199.3984,41.8658)"><path
             d="m 0,0 h -2.051 v 30.284 h -8.329 v 1.922 H 8.329 v -1.922 l -8.329,0 z"
             style="fill:#162983;fill-opacity:1;fill-rule:nonzero;stroke:none"
             id="path46" /></g><path
           d="m 222.041,41.866 h -2.05 v 32.206 h 2.05 z"
           style="fill:#162983;fill-opacity:1;fill-rule:nonzero;stroke:none"
           id="path48" /><g
           id="g50"
           transform="translate(237.6333,57.9688)"><path
             d="m 0,0 c 0,-7.945 6.621,-14.608 14.65,-14.608 7.988,0 14.651,6.706 14.651,14.608 0,7.944 -6.663,14.608 -14.651,14.608 C 6.621,14.608 0,7.944 0,0 m 31.351,0 c 0,-9.055 -7.645,-16.53 -16.701,-16.53 -9.054,0 -16.7,7.475 -16.7,16.53 0,9.055 7.603,16.53 16.7,16.53 9.056,0 16.701,-7.475 16.701,-16.53"
             style="fill:#162983;fill-opacity:1;fill-rule:nonzero;stroke:none"
             id="path52" /></g><g
           id="g54"
           transform="translate(311.6196,40.7979)"><path
             d="M 0,0 -27.038,28.746 V 1.068 h -2.05 V 33.701 L -2.05,5.168 V 33.273 H 0 Z"
             style="fill:#162983;fill-opacity:1;fill-rule:nonzero;stroke:none"
             id="path56" /></g><g
           id="g58"
           transform="translate(350.9258,72.1499)"><path
             d="m 0,0 v -11.704 h 10.636 v -1.922 H 0 V -30.284 H -2.05 V 1.921 h 12.985 l 0,-1.921 z"
             style="fill:#162983;fill-opacity:1;fill-rule:nonzero;stroke:none"
             id="path60" /></g><g
           id="g62"
           transform="translate(381.042,59.0367)"><path
             d="m 0,0 c 2.008,0 4.015,0.085 5.639,1.495 1.537,1.238 2.263,3.161 2.263,5.083 0,2.392 -1.11,4.783 -3.417,5.809 -1.709,0.811 -3.887,0.726 -5.766,0.726 H -2.605 L -2.605,0 Z M 11.276,-17.171 H 8.927 L -1.58,-1.922 h -1.025 v -15.249 h -2.051 v 32.206 h 4.016 c 2.605,0 5.168,-0.043 7.346,-1.623 2.307,-1.623 3.246,-4.186 3.246,-6.92 0,-5.596 -3.887,-8.499 -9.225,-8.414 z"
             style="fill:#162983;fill-opacity:1;fill-rule:nonzero;stroke:none"
             id="path64" /></g><g
           id="g66"
           transform="translate(416.0288,69.9283)"><path
             d="M 0,0 -6.322,-15.547 H 6.279 Z m -7.091,-17.469 -4.313,-10.594 h -2.093 L 0,5.211 13.454,-28.063 h -2.093 l -4.314,10.594 z"
             style="fill:#162983;fill-opacity:1;fill-rule:nonzero;stroke:none"
             id="path68" /></g><g
           id="g70"
           transform="translate(470.7925,40.7979)"><path
             d="M 0,0 -27.037,28.746 V 1.068 h -2.051 V 33.701 L -2.05,5.168 V 33.273 H 0 Z"
             style="fill:#162983;fill-opacity:1;fill-rule:nonzero;stroke:none"
             id="path72" /></g><g
           id="g74"
           transform="translate(497.0254,34.0493)"><path
             d="m 0,0 -1.623,0.812 3.973,6.15 2.391,-0.94 z m 14.821,33.444 c -2.477,3.033 -6.834,5.083 -10.806,5.083 -8.03,0 -14.651,-6.919 -14.651,-14.821 0,-3.759 1.624,-7.304 4.315,-9.952 2.691,-2.563 6.534,-4.442 10.336,-4.442 3.716,0 8.415,2.007 10.806,4.912 v -2.82 C 11.789,8.885 8.073,7.39 4.101,7.39 c -8.971,0 -16.787,7.474 -16.787,16.487 0,9.141 7.689,16.572 16.83,16.572 3.886,0 7.816,-1.537 10.677,-4.185 z"
             style="fill:#162983;fill-opacity:1;fill-rule:nonzero;stroke:none"
             id="path76" /></g><g
           id="g78"
           transform="translate(536.6274,69.9283)"><path
             d="M 0,0 -6.322,-15.547 H 6.279 Z m -7.091,-17.469 -4.313,-10.594 h -2.093 L 0,5.211 13.454,-28.063 h -2.092 l -4.315,10.594 z"
             style="fill:#162983;fill-opacity:1;fill-rule:nonzero;stroke:none"
             id="path80" /></g><path
           d="m 564.354,41.866 h -2.051 v 32.206 h 2.051 z"
           style="fill:#162983;fill-opacity:1;fill-rule:nonzero;stroke:none"
           id="path82" /><g
           id="g84"
           transform="translate(594.7256,68.7749)"><path
             d="m 0,0 c -1.452,2.307 -3.503,3.802 -6.535,3.802 -3.46,0 -6.066,-2.777 -6.066,-6.151 0,-3.374 3.204,-4.784 5.81,-6.023 l 6.15,-3.203 c 2.435,-1.537 3.673,-3.503 3.673,-6.407 0,-5.339 -4.868,-9.354 -10.08,-9.354 -4.485,0 -7.987,2.776 -9.482,6.919 l 1.794,0.812 c 1.367,-3.417 3.887,-5.809 7.774,-5.809 4.229,0 7.944,3.331 7.944,7.603 0,3.63 -3.715,5.168 -6.492,6.535 l -5.809,3.075 c -2.136,1.325 -3.331,3.204 -3.331,5.766 0,4.785 3.416,8.159 8.243,8.159 3.246,0 6.322,-1.751 7.859,-4.528 z"
             style="fill:#162983;fill-opacity:1;fill-rule:nonzero;stroke:none"
             id="path86" /></g><g
           id="g88"
           transform="translate(613.6523,72.1499)"><path
             d="m 0,0 v -11.704 h 12.985 v -1.922 H 0 v -14.736 h 13.326 v -1.922 H -2.05 V 1.921 H 13.326 V 0 Z"
             style="fill:#162983;fill-opacity:1;fill-rule:nonzero;stroke:none"
             id="path90" /></g><g
           id="g92"
           transform="translate(669.3574,43.7881)"><path
             d="m 0,0 c 4.229,0 7.731,0.854 10.807,3.887 2.733,2.733 4.271,6.406 4.271,10.251 0,4.101 -1.623,7.945 -4.656,10.721 C 7.347,27.635 4.015,28.362 0,28.362 H -3.716 V 0 Z m -5.767,30.283 h 5.81 c 4.699,0 8.415,-0.768 11.96,-4.057 3.374,-3.161 5.125,-7.475 5.125,-12.088 C 17.128,9.695 15.42,5.467 12.174,2.349 8.628,-1.068 4.827,-1.922 0.043,-1.922 h -5.81 z"
             style="fill:#162983;fill-opacity:1;fill-rule:nonzero;stroke:none"
             id="path94" /></g><g
           id="g96"
           transform="translate(702.0391,72.1499)"><path
             d="m 0,0 v -11.704 h 12.985 v -1.922 H 0 v -14.736 h 13.326 v -1.922 H -2.05 V 1.921 H 13.326 V 0 Z"
             style="fill:#162983;fill-opacity:1;fill-rule:nonzero;stroke:none"
             id="path98" /></g><g
           id="g100"
           transform="translate(777.5645,67.4937)"><path
             d="m 0,0 c -2.478,3.033 -6.834,5.083 -10.807,5.083 -8.029,0 -14.65,-6.919 -14.65,-14.821 0,-3.76 1.623,-7.304 4.313,-9.952 2.692,-2.563 6.536,-4.443 10.337,-4.443 3.717,0 8.415,2.007 10.807,4.912 v -2.819 c -3.033,-2.52 -6.748,-4.015 -10.721,-4.015 -8.969,0 -16.787,7.475 -16.787,16.488 0,9.14 7.69,16.572 16.83,16.572 3.887,0 7.816,-1.537 10.678,-4.186 z"
             style="fill:#162983;fill-opacity:1;fill-rule:nonzero;stroke:none"
             id="path102" /></g><g
           id="g104"
           transform="translate(788.8047,74.0713)"><path
             d="M 0,0 H 2.263 L 11.746,-16.316 21.229,0 h 2.263 L 12.771,-18.452 v -13.754 h -2.05 v 13.754 z"
             style="fill:#162983;fill-opacity:1;fill-rule:nonzero;stroke:none"
             id="path106" /></g><g
           id="g108"
           transform="translate(850.1025,67.4937)"><path
             d="m 0,0 c -2.478,3.033 -6.834,5.083 -10.807,5.083 -8.03,0 -14.65,-6.919 -14.65,-14.821 0,-3.76 1.623,-7.304 4.313,-9.952 2.691,-2.563 6.536,-4.443 10.337,-4.443 3.716,0 8.415,2.007 10.807,4.912 v -2.819 c -3.033,-2.52 -6.748,-4.015 -10.721,-4.015 -8.969,0 -16.787,7.475 -16.787,16.488 0,9.14 7.689,16.572 16.829,16.572 3.888,0 7.817,-1.537 10.679,-4.186 z"
             style="fill:#162983;fill-opacity:1;fill-rule:nonzero;stroke:none"
             id="path110" /></g><g
           id="g112"
           transform="translate(866.6816,43.7881)"><path
             d="M 0,0 H 8.2 V -1.922 H -2.051 V 30.283 H 0 Z"
             style="fill:#162983;fill-opacity:1;fill-rule:nonzero;stroke:none"
             id="path114" /></g><g
           id="g116"
           transform="translate(887.2725,57.9688)"><path
             d="m 0,0 c 0,-7.945 6.621,-14.608 14.651,-14.608 7.987,0 14.651,6.706 14.651,14.608 0,7.944 -6.664,14.608 -14.651,14.608 C 6.621,14.608 0,7.944 0,0 m 31.353,0 c 0,-9.055 -7.647,-16.53 -16.702,-16.53 -9.055,0 -16.701,7.475 -16.701,16.53 0,9.055 7.603,16.53 16.701,16.53 9.055,0 16.702,-7.475 16.702,-16.53"
             style="fill:#162983;fill-opacity:1;fill-rule:nonzero;stroke:none"
             id="path118" /></g><g
           id="g120"
           transform="translate(939.3467,41.8658)"><path
             d="m 0,0 h -2.05 v 30.284 h -8.329 v 1.922 H 8.329 v -1.922 l -8.329,0 z"
             style="fill:#162983;fill-opacity:1;fill-rule:nonzero;stroke:none"
             id="path122" /></g><g
           id="g124"
           transform="translate(960.0674,57.9688)"><path
             d="m 0,0 c 0,-7.945 6.621,-14.608 14.65,-14.608 7.988,0 14.651,6.706 14.651,14.608 0,7.944 -6.663,14.608 -14.651,14.608 C 6.621,14.608 0,7.944 0,0 m 31.352,0 c 0,-9.055 -7.647,-16.53 -16.702,-16.53 -9.054,0 -16.701,7.475 -16.701,16.53 0,9.055 7.604,16.53 16.701,16.53 9.055,0 16.702,-7.475 16.702,-16.53"
             style="fill:#162983;fill-opacity:1;fill-rule:nonzero;stroke:none"
             id="path126" /></g><g
           id="g128"
           transform="translate(1024.4854,74.0713)"><path
             d="m 0,0 h 2.051 v -20.075 c 0,-3.289 0,-6.108 -2.179,-8.799 -2.179,-2.477 -5.511,-3.758 -8.756,-3.758 -3.247,0 -6.578,1.281 -8.757,3.758 -2.177,2.691 -2.177,5.51 -2.177,8.799 V 0 h 2.048 v -19.477 c 0,-2.904 0,-5.98 1.666,-8.115 1.582,-2.051 4.742,-3.118 7.22,-3.118 2.477,0 5.637,1.067 7.219,3.118 C 0,-25.457 0,-22.381 0,-19.477 Z"
             style="fill:#162983;fill-opacity:1;fill-rule:nonzero;stroke:none"
             id="path130" /></g><g
           id="g132"
           transform="translate(1046.3594,59.0367)"><path
             d="m 0,0 c 2.008,0 4.016,0.085 5.639,1.495 1.537,1.238 2.263,3.161 2.263,5.083 0,2.392 -1.11,4.783 -3.417,5.809 -1.709,0.811 -3.887,0.726 -5.765,0.726 H -2.605 L -2.605,0 Z M 11.277,-17.171 H 8.927 L -1.58,-1.922 h -1.025 v -15.249 h -2.05 v 32.206 h 4.015 c 2.605,0 5.168,-0.043 7.347,-1.623 2.306,-1.623 3.245,-4.186 3.245,-6.92 0,-5.596 -3.887,-8.499 -9.225,-8.414 z"
             style="fill:#162983;fill-opacity:1;fill-rule:nonzero;stroke:none"
             id="path134" /></g><path
           d="m 1073.146,41.866 h -2.051 v 32.206 h 2.051 z"
           style="fill:#162983;fill-opacity:1;fill-rule:nonzero;stroke:none"
           id="path136" /><g
           id="g138"
           transform="translate(1103.5166,68.7749)"><path
             d="m 0,0 c -1.452,2.307 -3.502,3.802 -6.535,3.802 -3.459,0 -6.065,-2.777 -6.065,-6.151 0,-3.374 3.203,-4.784 5.808,-6.023 l 6.152,-3.203 c 2.434,-1.537 3.673,-3.503 3.673,-6.407 0,-5.339 -4.87,-9.354 -10.08,-9.354 -4.486,0 -7.988,2.776 -9.483,6.919 l 1.794,0.812 c 1.368,-3.417 3.887,-5.809 7.773,-5.809 4.23,0 7.945,3.331 7.945,7.603 0,3.63 -3.715,5.168 -6.492,6.535 l -5.809,3.075 c -2.135,1.325 -3.331,3.204 -3.331,5.766 0,4.785 3.417,8.159 8.243,8.159 3.246,0 6.322,-1.751 7.859,-4.528 z"
             style="fill:#162983;fill-opacity:1;fill-rule:nonzero;stroke:none"
             id="path140" /></g><g
           id="g142"
           transform="translate(1147.3887,68.5191)"><path
             d="M 0,0 H -0.086 L -11.319,-27.721 -22.511,0 h -0.085 l -5.51,-26.653 H -30.07 L -23.151,6.62 -11.319,-22.681 0.555,6.62 7.474,-26.653 H 5.51 Z"
             style="fill:#162983;fill-opacity:1;fill-rule:nonzero;stroke:none"
             id="path144" /></g><g
           id="g146"
           transform="translate(1169.3076,72.1499)"><path
             d="m 0,0 v -11.704 h 12.985 v -1.922 H 0 v -14.736 h 13.326 v -1.922 H -2.051 V 1.921 H 13.326 V 0 Z"
             style="fill:#162983;fill-opacity:1;fill-rule:nonzero;stroke:none"
             id="path148" /></g></g></g></g></svg>
