<?xml version="1.0" encoding="UTF-8" standalone="no"?>
<svg
   xmlns:dc="http://purl.org/dc/elements/1.1/"
   xmlns:cc="http://creativecommons.org/ns#"
   xmlns:rdf="http://www.w3.org/1999/02/22-rdf-syntax-ns#"
   xmlns:svg="http://www.w3.org/2000/svg"
   xmlns="http://www.w3.org/2000/svg"
   xmlns:sodipodi="http://sodipodi.sourceforge.net/DTD/sodipodi-0.dtd"
   xmlns:inkscape="http://www.inkscape.org/namespaces/inkscape"
   version="1.1"
   id="svg2"
   xml:space="preserve"
   width="1122.52"
   height="1083.4399"
   viewBox="0 0 1122.52 1083.4399"
   sodipodi:docname="FFVELO_logo_NB.ai"><metadata
     id="metadata8"><rdf:RDF><cc:Work
         rdf:about=""><dc:format>image/svg+xml</dc:format><dc:type
           rdf:resource="http://purl.org/dc/dcmitype/StillImage" /></cc:Work></rdf:RDF></metadata><defs
     id="defs6"><clipPath
       clipPathUnits="userSpaceOnUse"
       id="clipPath18"><path
         d="M 0,812.58 H 841.89 V 0 H 0 Z"
         id="path16" /></clipPath><clipPath
       clipPathUnits="userSpaceOnUse"
       id="clipPath34"><path
         d="M 194.933,696.148 C 36.75,574.482 7.146,347.624 128.808,189.439 v 0 C 250.473,31.254 477.334,1.652 635.513,123.315 v 0 c 4.126,3.174 8.106,6.455 12.051,9.764 v 0 C 503.734,32.674 304.933,62.186 196.886,202.673 v 0 C 85.662,347.276 112.729,554.665 257.33,665.888 v 0 c 140.485,108.047 340.202,85.56 453.451,-48.397 v 0 c -2.967,4.216 -5.97,8.412 -9.145,12.533 v 0 c -71.157,92.522 -178.329,141.054 -286.675,141.06 v 0 c -76.89,0.004 -154.368,-24.433 -220.028,-74.936"
         id="path32" /></clipPath><clipPath
       clipPathUnits="userSpaceOnUse"
       id="clipPath46"><path
         d="M 0,812.58 H 841.89 V 0 H 0 Z"
         id="path44" /></clipPath><clipPath
       clipPathUnits="userSpaceOnUse"
       id="clipPath82"><path
         d="M 296.232,629.544 C 212.886,562.548 167.238,460.373 177.924,361.401 v 0 l 17.321,0.214 c 2.223,0.045 4.4,-0.22 6.557,-0.789 v 0 c 1.27,-0.336 2.481,-0.808 3.653,-1.344 v 0 c 0.568,80.1 35.751,159.299 103.054,213.402 v 0 c 118.87,95.544 292.688,76.64 388.237,-42.229 v 0 C 789.563,415.176 775.502,246.064 665.571,149.008 v 0 c 3.466,2.552 6.923,5.143 10.31,7.863 v 0 c 130.028,104.52 149.559,296.453 45.039,426.481 v 0 C 661.248,657.587 573.66,696.181 485.289,696.183 v 0 c -66.414,0.004 -133.268,-21.792 -189.057,-66.639"
         id="path80" /></clipPath><clipPath
       clipPathUnits="userSpaceOnUse"
       id="clipPath92"><path
         d="M 0,812.58 H 841.89 V 0 H 0 Z"
         id="path90" /></clipPath><linearGradient
       x1="0"
       y1="0"
       x2="1"
       y2="0"
       gradientUnits="userSpaceOnUse"
       gradientTransform="matrix(-456.08093,-572.07806,572.07806,-456.08093,613.85632,708.25397)"
       spreadMethod="pad"
       id="linearGradient116"><stop
         style="stop-opacity:1;stop-color:#3e3e40"
         offset="0"
         id="stop110" /><stop
         style="stop-opacity:1;stop-color:#b1b3b4"
         offset="0.999505"
         id="stop112" /><stop
         style="stop-opacity:1;stop-color:#b1b3b4"
         offset="1"
         id="stop114" /></linearGradient><clipPath
       clipPathUnits="userSpaceOnUse"
       id="clipPath126"><path
         d="M 0,812.58 H 841.89 V 0 H 0 Z"
         id="path124" /></clipPath><linearGradient
       x1="0"
       y1="0"
       x2="1"
       y2="0"
       gradientUnits="userSpaceOnUse"
       gradientTransform="matrix(613.24713,0,0,613.24713,175.16885,422.75369)"
       spreadMethod="pad"
       id="linearGradient168"><stop
         style="stop-opacity:1;stop-color:#707173"
         offset="0"
         id="stop164" /><stop
         style="stop-opacity:1;stop-color:#1a171b"
         offset="1"
         id="stop166" /></linearGradient></defs><sodipodi:namedview
     pagecolor="#ffffff"
     bordercolor="#666666"
     borderopacity="1"
     objecttolerance="10"
     gridtolerance="10"
     guidetolerance="10"
     inkscape:pageopacity="0"
     inkscape:pageshadow="2"
     inkscape:window-width="640"
     inkscape:window-height="480"
     id="namedview4" /><g
     id="g10"
     inkscape:groupmode="layer"
     inkscape:label="FFVELO_logo_NB"
     transform="matrix(1.3333333,0,0,-1.3333333,0,1083.44)"><g
       id="g12"><g
         id="g14"
         clip-path="url(#clipPath18)"><g
           id="g20"
           transform="translate(787.4687,401.6778)"><path
             d="m 0,0 c 0,-190.127 -189.59,-353.223 -364.698,-353.223 -200.506,0 -361.399,158.141 -361.399,353.223 0,195.081 162.544,353.229 363.05,353.229 C -162.539,353.229 0,192.795 0,0"
             style="fill:#ffffff;fill-opacity:1;fill-rule:nonzero;stroke:none"
             id="path22" /></g><g
           id="g24"
           transform="translate(194.9331,696.1479)"><path
             d="m 0,0 c -158.184,-121.667 -187.787,-348.523 -66.125,-506.708 121.665,-158.186 348.526,-187.788 506.706,-66.125 4.125,3.173 8.105,6.456 12.05,9.764 C 308.801,-663.473 110,-633.961 1.953,-493.475 -109.271,-348.873 -82.204,-141.483 62.397,-30.259 202.882,77.787 402.598,55.3 515.848,-78.657 c -2.967,4.217 -5.971,8.412 -9.144,12.533 C 435.545,26.398 328.374,74.93 220.028,74.936 143.138,74.939 65.66,50.502 0,0"
             style="fill:#1a171b;fill-opacity:1;fill-rule:nonzero;stroke:none"
             id="path26" /></g></g></g><g
       id="g28"><g
         id="g30"
         clip-path="url(#clipPath34)"><g
           id="g36"
           transform="translate(1087.2148,473.8286)"><path
             d="m 0,0 -649.865,-815.151 -806.639,643.081 649.866,815.151 z"
             style="fill:#1a171b;fill-opacity:1;fill-rule:nonzero;stroke:none"
             id="path38" /></g></g></g><g
       id="g40"><g
         id="g42"
         clip-path="url(#clipPath46)"><g
           id="g48"
           transform="translate(460.3047,505.4546)"><path
             d="M 0,0 C 0,0 21.553,2.567 21.469,31.778 H -77.706 V -130.18 l 0.55,0.245 c 0.252,0.44 0.565,0.996 0.807,1.429 3.451,6.093 6.315,11.12 8.599,15.056 2.273,3.942 4.033,6.901 5.26,8.872 1.231,1.971 2.037,3.199 2.409,3.689 3.659,4.802 9.177,7.813 16.37,9.215 v 31.14 h 54.572 v 31.814 h -54.572 v 28.691 z"
             style="fill:#1a171b;fill-opacity:1;fill-rule:nonzero;stroke:none"
             id="path50" /></g><g
           id="g52"
           transform="translate(534.0371,505.4239)"><path
             d="M 0,0 V -28.69 H 54.57 V -60.503 H 0 v -35.244 c 0,0 1.207,-18.635 -12.006,-24.735 l -21.99,-9.667 V 31.809 H 65.18 C 65.262,2.601 43.711,0.031 43.711,0.031 Z"
             style="fill:#1a171b;fill-opacity:1;fill-rule:nonzero;stroke:none"
             id="path54" /></g><g
           id="g56"
           transform="translate(206.2803,279.084)"><path
             d="M 0,0 C -9.383,22.384 -18.835,44.89 -28.356,67.532 H -7.52 c 2.316,0 4.583,-0.329 6.822,-0.962 2.228,-0.653 4.305,-1.59 6.237,-2.831 1.922,-1.247 3.64,-2.726 5.144,-4.446 1.502,-1.712 2.635,-3.599 3.402,-5.653 4.467,-10.721 8.903,-21.337 13.316,-31.838 4.417,-10.5 8.903,-21.117 13.446,-31.837 1.2,-2.831 2.316,-5.745 3.342,-8.743 1.024,-3.005 1.882,-6.559 2.573,-10.681 0,0.517 0.039,1.24 0.127,2.19 0.089,0.937 0.326,2.164 0.71,3.664 0.385,1.499 0.985,3.367 1.803,5.596 0.808,2.229 1.903,4.93 3.273,8.103 4.632,10.636 9.137,21.227 13.515,31.773 4.367,10.546 8.83,21.182 13.373,31.902 1.796,4.284 4.671,7.67 8.615,10.164 3.943,2.482 8.28,3.729 12.991,3.729 h 20.709 L 65.025,-67.533 H 28.497 C 18.896,-44.89 9.394,-22.384 0,0"
             style="fill:#1a171b;fill-opacity:1;fill-rule:nonzero;stroke:none"
             id="path58" /></g><g
           id="g60"
           transform="translate(423.4727,368.0957)"><path
             d="m 0,0 c -3.597,-4.808 -9.687,-7.199 -18.267,-7.199 h -16.979 c 3.429,6.081 6.346,11.25 8.751,15.496 2.396,4.245 4.398,7.735 5.983,10.481 1.588,2.74 2.809,4.801 3.668,6.171 0.847,1.376 1.41,2.236 1.664,2.572 3.608,4.717 9.651,7.076 18.137,7.076 h 23.41 z m 10.289,-70.492 c -0.853,2.054 -2.168,4.226 -3.92,6.5 -1.756,2.268 -3.984,4.368 -6.693,6.301 -2.703,1.925 -5.827,3.534 -9.383,4.82 -3.56,1.292 -7.531,1.933 -11.897,1.933 -4.891,0 -9.267,-0.75 -13.121,-2.25 -3.864,-1.505 -7.223,-3.392 -10.102,-5.66 -2.87,-2.275 -5.206,-4.736 -7.006,-7.399 -1.808,-2.662 -3.048,-5.143 -3.73,-7.457 0.425,0.427 1.225,1.066 2.376,1.933 1.155,0.846 2.723,1.279 4.692,1.279 z m 35.508,-7.839 c 0,-3.521 -0.692,-6.584 -2.061,-9.201 -1.371,-2.617 -3.134,-4.782 -5.273,-6.494 -2.15,-1.719 -4.486,-3.005 -7.01,-3.864 -2.535,-0.86 -4.959,-1.286 -7.275,-1.286 h -80.263 c 0.433,-2.572 1.479,-5.486 3.154,-8.743 1.677,-3.263 3.943,-6.3 6.822,-9.131 2.867,-2.836 6.298,-5.208 10.292,-7.14 3.98,-1.932 8.505,-2.895 13.571,-2.895 3.084,0 6.17,0.407 9.257,1.222 3.084,0.814 5.963,1.945 8.612,3.405 1.897,1.118 3.816,1.906 5.796,2.384 1.973,0.472 4.073,0.705 6.3,0.705 3.342,0 6.345,-0.595 9.008,-1.803 2.65,-1.196 5.095,-2.908 7.324,-5.144 l 7.719,-7.845 c -7.284,-7.805 -15.565,-13.789 -24.821,-17.944 -9.265,-4.162 -18.995,-6.236 -29.195,-6.236 -9.612,0 -18.641,1.816 -27.076,5.467 -8.448,3.638 -15.829,8.594 -22.127,14.85 -6.299,6.261 -11.276,13.614 -14.926,22.066 -3.644,8.446 -5.458,17.428 -5.458,26.946 0,9.518 1.814,18.5 5.458,26.946 3.65,8.446 8.627,15.799 14.926,22.061 6.298,6.255 13.679,11.211 22.127,14.856 8.435,3.644 17.464,5.466 27.076,5.466 7.975,0 15.602,-1.331 22.889,-3.987 7.291,-2.662 13.914,-6.326 19.878,-10.998 5.954,-4.672 11.061,-10.184 15.299,-16.529 4.248,-6.345 7.354,-13.163 9.334,-20.452 0.34,-1.202 0.514,-2.378 0.514,-3.535 0,-1.156 0.039,-2.21 0.129,-3.147"
             style="fill:#1a171b;fill-opacity:1;fill-rule:nonzero;stroke:none"
             id="path62" /></g><g
           id="g64"
           transform="translate(533.9551,388.9156)"><path
             d="m 0,0 v -177.365 h -33.826 v 151.866 l 22.383,9.9 C -11.443,-15.599 0,-10.72 0,0"
             style="fill:#1a171b;fill-opacity:1;fill-rule:nonzero;stroke:none"
             id="path66" /></g><g
           id="g68"
           transform="translate(597.6309,278.9546)"><path
             d="m 0,0 c 0,-4.892 0.937,-9.518 2.826,-13.893 1.887,-4.375 4.459,-8.168 7.723,-11.379 3.25,-3.218 7.066,-5.77 11.437,-7.657 4.381,-1.881 9.014,-2.831 13.893,-2.831 4.889,0 9.519,0.95 13.9,2.831 4.366,1.887 8.18,4.439 11.444,7.657 3.259,3.211 5.834,7.004 7.715,11.379 1.884,4.375 2.83,9.001 2.83,13.893 0,4.969 -0.946,9.622 -2.83,13.958 -1.881,4.323 -4.456,8.116 -7.715,11.385 -3.264,3.257 -7.078,5.829 -11.444,7.716 -4.381,1.887 -9.011,2.83 -13.9,2.83 -4.879,0 -9.512,-0.943 -13.893,-2.83 C 17.615,31.172 13.799,28.6 10.549,25.343 7.285,22.074 4.713,18.281 2.826,13.958 0.937,9.622 0,4.969 0,0 m -33.443,0.129 c 0,9.518 1.812,18.5 5.461,26.946 3.644,8.446 8.623,15.819 14.919,22.126 6.301,6.299 13.68,11.275 22.131,14.92 8.438,3.644 17.428,5.466 26.94,5.466 9.519,0 18.5,-1.822 26.947,-5.466 8.447,-3.645 15.83,-8.621 22.131,-14.92 6.297,-6.307 11.273,-13.68 14.92,-22.126 3.639,-8.446 5.461,-17.428 5.461,-26.946 0,-9.518 -1.822,-18.5 -5.461,-26.945 -3.647,-8.453 -8.623,-15.826 -14.92,-22.126 -6.301,-6.307 -13.684,-11.282 -22.131,-14.92 -8.447,-3.651 -17.428,-5.467 -26.947,-5.467 -9.512,0 -18.502,1.816 -26.94,5.467 -8.451,3.638 -15.83,8.613 -22.131,14.92 -6.296,6.3 -11.275,13.673 -14.919,22.126 -3.649,8.445 -5.461,17.427 -5.461,26.945"
             style="fill:#1a171b;fill-opacity:1;fill-rule:nonzero;stroke:none"
             id="path70" /></g><g
           id="g72"
           transform="translate(296.2319,629.5439)"><path
             d="m 0,0 c -83.346,-66.996 -128.994,-169.17 -118.308,-268.143 l 17.321,0.213 c 2.223,0.046 4.401,-0.219 6.557,-0.788 1.27,-0.336 2.481,-0.808 3.653,-1.344 0.569,80.101 35.751,159.298 103.054,213.402 118.87,95.544 292.688,76.64 388.237,-42.228 92.817,-115.48 78.756,-284.592 -31.176,-381.648 3.467,2.552 6.924,5.143 10.311,7.863 130.027,104.521 149.559,296.453 45.039,426.481 C 365.016,28.043 277.428,66.636 189.057,66.64 122.644,66.643 55.79,44.847 0,0"
             style="fill:#1a171b;fill-opacity:1;fill-rule:nonzero;stroke:none"
             id="path74" /></g></g></g><g
       id="g76"><g
         id="g78"
         clip-path="url(#clipPath82)"><path
           d="M 167.238,696.187 H 825.44 V 149.008 H 167.238 Z"
           style="fill:#1a171b;fill-opacity:1;fill-rule:nonzero;stroke:none"
           id="path84" /></g></g><g
       id="g86"><g
         id="g88"
         clip-path="url(#clipPath92)"><g
           id="g94"
           transform="translate(788.0752,401.7779)"><path
             d="m 0,0 c 0,-190.631 -190.094,-354.167 -365.67,-354.167 -201.044,0 -362.367,158.566 -362.367,354.167 0,195.604 162.975,354.173 364.022,354.173 C -162.978,354.173 0,193.31 0,0"
             style="fill:#ffffff;fill-opacity:1;fill-rule:nonzero;stroke:none"
             id="path96" /></g></g></g><g
       id="g98"><g
         id="g100"><g
           id="g106"><g
             id="g108"><path
               d="M 193.954,697.036 C 35.349,575.042 5.665,347.58 127.654,188.976 v 0 C 249.643,30.365 477.111,0.681 635.716,122.673 v 0 c 4.131,3.179 8.126,6.47 12.085,9.79 v 0 C 503.578,31.787 304.252,61.38 195.912,202.243 v 0 C 84.393,347.23 111.527,555.173 256.52,666.696 v 0 c 140.86,108.336 341.11,85.789 454.663,-48.529 v 0 c -2.974,4.231 -5.987,8.435 -9.169,12.569 v 0 c -71.35,92.769 -178.806,141.43 -287.442,141.436 v 0 c -77.095,0.004 -154.78,-24.502 -220.618,-75.136"
               style="fill:url(#linearGradient116);stroke:none"
               id="path118" /></g></g></g></g><g
       id="g120"><g
         id="g122"
         clip-path="url(#clipPath126)"><g
           id="g128"
           transform="translate(460.0361,505.8316)"><path
             d="m 0,0 c 0,0 21.607,2.573 21.522,31.865 h -99.434 v -162.39 l 0.551,0.243 c 0.25,0.441 0.567,1.002 0.807,1.433 3.459,6.112 6.333,11.15 8.62,15.096 2.281,3.952 4.046,6.919 5.277,8.896 1.235,1.976 2.045,3.207 2.414,3.702 3.67,4.811 9.203,7.834 16.415,9.239 v 31.223 h 54.719 v 31.897 h -54.719 v 28.767 z"
             style="fill:#707173;fill-opacity:1;fill-rule:nonzero;stroke:none"
             id="path130" /></g><g
           id="g132"
           transform="translate(533.9629,505.7993)"><path
             d="M 0,0 V -28.767 H 54.718 V -60.664 H 0 v -35.334 c 0,0 1.218,-18.689 -12.038,-24.805 l -22.046,-9.693 V 31.897 H 65.354 C 65.44,2.611 43.83,0.032 43.83,0.032 Z"
             style="fill:#707173;fill-opacity:1;fill-rule:nonzero;stroke:none"
             id="path134" /></g><g
           id="g136"
           transform="translate(205.332,278.856)"><path
             d="m 0,0 c -9.408,22.443 -18.883,45.01 -28.433,67.713 h 20.894 c 2.32,0 4.594,-0.327 6.836,-0.965 2.235,-0.651 4.322,-1.594 6.259,-2.838 1.924,-1.251 3.644,-2.734 5.157,-4.457 1.507,-1.718 2.641,-3.61 3.412,-5.67 4.477,-10.749 8.921,-21.391 13.35,-31.923 4.428,-10.528 8.928,-21.173 13.483,-31.922 1.205,-2.838 2.319,-5.757 3.35,-8.767 1.026,-3.012 1.885,-6.576 2.578,-10.706 0,0.515 0.042,1.243 0.126,2.193 0.092,0.94 0.331,2.171 0.717,3.674 0.382,1.503 0.987,3.378 1.807,5.611 0.81,2.238 1.905,4.943 3.279,8.124 4.645,10.665 9.164,21.284 13.551,31.858 4.376,10.575 8.854,21.239 13.411,31.988 1.798,4.295 4.685,7.69 8.637,10.191 3.956,2.488 8.303,3.738 13.026,3.738 h 20.766 L 65.199,-67.709 H 28.573 C 18.945,-45.007 9.417,-22.44 0,0"
             style="fill:#3e3e40;fill-opacity:1;fill-rule:nonzero;stroke:none"
             id="path138" /></g><g
           id="g140"
           transform="translate(423.1055,368.1055)"><path
             d="m 0,0 c -3.606,-4.82 -9.716,-7.218 -18.314,-7.218 h -17.024 c 3.434,6.097 6.363,11.28 8.773,15.537 2.4,4.257 4.406,7.759 6,10.513 1.59,2.744 2.815,4.81 3.676,6.184 0.849,1.38 1.413,2.242 1.669,2.579 3.618,4.729 9.677,7.094 18.187,7.094 h 23.472 z m 10.316,-70.677 c -0.853,2.06 -2.172,4.234 -3.932,6.514 -1.756,2.275 -3.988,4.384 -6.708,6.317 -2.709,1.934 -5.838,3.544 -9.411,4.837 -3.567,1.293 -7.552,1.934 -11.926,1.934 -4.904,0 -9.294,-0.751 -13.158,-2.255 -3.872,-1.506 -7.244,-3.401 -10.131,-5.675 -2.873,-2.281 -5.215,-4.749 -7.026,-7.415 -1.808,-2.673 -3.052,-5.161 -3.735,-7.481 0.424,0.428 1.224,1.069 2.381,1.938 1.156,0.852 2.727,1.286 4.707,1.286 z m 35.6,-7.863 c 0,-3.531 -0.692,-6.602 -2.066,-9.226 -1.373,-2.624 -3.143,-4.795 -5.287,-6.511 -2.152,-1.724 -4.494,-3.013 -7.027,-3.875 -2.539,-0.858 -4.97,-1.289 -7.289,-1.289 h -80.483 c 0.437,-2.579 1.484,-5.501 3.165,-8.767 1.678,-3.268 3.952,-6.317 6.839,-9.154 2.879,-2.841 6.314,-5.222 10.317,-7.159 3.992,-1.938 8.53,-2.903 13.61,-2.903 3.094,0 6.188,0.407 9.278,1.224 3.093,0.816 5.98,1.95 8.64,3.415 1.895,1.12 3.823,1.914 5.811,2.39 1.976,0.473 4.079,0.707 6.314,0.707 3.35,0 6.366,-0.596 9.036,-1.808 2.656,-1.199 5.111,-2.916 7.344,-5.158 l 7.738,-7.865 c -7.307,-7.824 -15.607,-13.824 -24.885,-17.993 -9.295,-4.17 -19.049,-6.249 -29.276,-6.249 -9.638,0 -18.686,1.821 -27.151,5.478 -8.468,3.651 -15.867,8.617 -22.188,14.892 -6.314,6.279 -11.305,13.649 -14.957,22.123 -3.66,8.469 -5.481,17.475 -5.481,27.018 0,9.547 1.821,18.55 5.481,27.018 3.652,8.468 8.643,15.845 14.957,22.12 6.321,6.275 13.72,11.241 22.188,14.899 8.465,3.651 17.513,5.481 27.151,5.481 7.998,0 15.644,-1.335 22.949,-3.998 7.312,-2.672 13.954,-6.346 19.932,-11.03 5.971,-4.685 11.089,-10.211 15.34,-16.571 4.261,-6.366 7.37,-13.201 9.359,-20.506 0.333,-1.205 0.512,-2.388 0.512,-3.547 0,-1.16 0.042,-2.217 0.129,-3.156"
             style="fill:#3e3e40;fill-opacity:1;fill-rule:nonzero;stroke:none"
             id="path142" /></g><g
           id="g144"
           transform="translate(533.8848,388.9815)"><path
             d="m 0,0 v -177.835 h -33.919 v 152.272 l 22.444,9.922 C -11.475,-15.641 0,-10.749 0,0"
             style="fill:#3e3e40;fill-opacity:1;fill-rule:nonzero;stroke:none"
             id="path146" /></g><g
           id="g148"
           transform="translate(597.7305,278.7261)"><path
             d="m 0,0 c 0,-4.904 0.937,-9.541 2.833,-13.93 1.889,-4.386 4.468,-8.186 7.742,-11.41 3.261,-3.226 7.087,-5.786 11.473,-7.674 4.393,-1.889 9.031,-2.841 13.931,-2.841 4.896,0 9.542,0.952 13.927,2.841 4.382,1.888 8.206,4.448 11.477,7.674 3.272,3.224 5.853,7.024 7.738,11.41 1.885,4.389 2.836,9.026 2.836,13.93 0,4.986 -0.951,9.651 -2.836,13.995 -1.885,4.335 -4.466,8.141 -7.738,11.416 -3.271,3.266 -7.095,5.844 -11.477,7.736 -4.385,1.892 -9.031,2.838 -13.927,2.838 -4.9,0 -9.538,-0.946 -13.931,-2.838 C 17.662,31.255 13.836,28.677 10.575,25.411 7.301,22.136 4.722,18.33 2.833,13.995 0.937,9.651 0,4.986 0,0 m -33.53,0.13 c 0,9.547 1.814,18.549 5.471,27.017 3.661,8.469 8.647,15.865 14.963,22.185 6.316,6.317 13.718,11.306 22.19,14.96 8.457,3.655 17.47,5.485 27.007,5.485 9.551,0 18.552,-1.83 27.022,-5.485 8.467,-3.654 15.869,-8.643 22.187,-14.96 6.314,-6.32 11.306,-13.716 14.967,-22.185 3.641,-8.468 5.471,-17.47 5.471,-27.017 0,-9.544 -1.83,-18.549 -5.471,-27.018 -3.661,-8.475 -8.653,-15.864 -14.967,-22.184 -6.318,-6.324 -13.72,-11.31 -22.187,-14.958 -8.47,-3.661 -17.471,-5.484 -27.022,-5.484 -9.537,0 -18.55,1.823 -27.007,5.484 -8.472,3.648 -15.874,8.634 -22.19,14.958 -6.316,6.32 -11.302,13.709 -14.963,22.184 -3.657,8.469 -5.471,17.474 -5.471,27.018"
             style="fill:#3e3e40;fill-opacity:1;fill-rule:nonzero;stroke:none"
             id="path150" /></g></g></g><g
       id="g152"><g
         id="g154"><g
           id="g160"><g
             id="g162"><path
               d="M 295.528,630.254 C 211.95,563.078 166.186,460.631 176.902,361.393 v 0 l 17.367,0.214 c 2.225,0.048 4.406,-0.216 6.573,-0.787 v 0 c 1.273,-0.34 2.488,-0.81 3.658,-1.351 v 0 c 0.573,80.315 35.852,159.723 103.335,213.972 v 0 c 119.19,95.801 293.471,76.846 389.271,-42.34 v 0 c 93.071,-115.789 78.97,-285.353 -31.255,-382.669 v 0 c 3.474,2.559 6.939,5.157 10.339,7.885 v 0 c 130.376,104.799 149.954,297.244 45.154,427.62 v 0 C 661.515,658.37 573.692,697.069 485.085,697.069 v 0 c -66.587,0.007 -133.617,-21.848 -189.557,-66.815"
               style="fill:url(#linearGradient168);stroke:none"
               id="path170" /></g></g></g></g></g></svg>
