<?xml version="1.0" encoding="UTF-8" standalone="no"?>
<svg
   xmlns:dc="http://purl.org/dc/elements/1.1/"
   xmlns:cc="http://creativecommons.org/ns#"
   xmlns:rdf="http://www.w3.org/1999/02/22-rdf-syntax-ns#"
   xmlns:svg="http://www.w3.org/2000/svg"
   xmlns="http://www.w3.org/2000/svg"
   xmlns:sodipodi="http://sodipodi.sourceforge.net/DTD/sodipodi-0.dtd"
   xmlns:inkscape="http://www.inkscape.org/namespaces/inkscape"
   version="1.1"
   id="svg2"
   xml:space="preserve"
   width="1122.52"
   height="1083.4399"
   viewBox="0 0 1122.52 1083.4399"
   sodipodi:docname="FFVELO_logo_niveaux_gris.ai"><metadata
     id="metadata8"><rdf:RDF><cc:Work
         rdf:about=""><dc:format>image/svg+xml</dc:format><dc:type
           rdf:resource="http://purl.org/dc/dcmitype/StillImage" /></cc:Work></rdf:RDF></metadata><defs
     id="defs6"><clipPath
       clipPathUnits="userSpaceOnUse"
       id="clipPath18"><path
         d="M 0,812.58 H 841.89 V 0 H 0 Z"
         id="path16" /></clipPath><linearGradient
       x1="0"
       y1="0"
       x2="1"
       y2="0"
       gradientUnits="userSpaceOnUse"
       gradientTransform="matrix(-456.03751,-572.02393,-572.02393,456.03751,635.0166,691.46112)"
       spreadMethod="pad"
       id="linearGradient42"><stop
         style="stop-opacity:1;stop-color:#393536"
         offset="0"
         id="stop36" /><stop
         style="stop-opacity:1;stop-color:#a7a5a6"
         offset="0.999505"
         id="stop38" /><stop
         style="stop-opacity:1;stop-color:#a7a5a6"
         offset="1"
         id="stop40" /></linearGradient><clipPath
       clipPathUnits="userSpaceOnUse"
       id="clipPath52"><path
         d="M 0,812.58 H 841.89 V 0 H 0 Z"
         id="path50" /></clipPath><linearGradient
       x1="0"
       y1="0"
       x2="1"
       y2="0"
       gradientUnits="userSpaceOnUse"
       gradientTransform="matrix(613.20099,0,0,-613.20099,175.75899,422.78833)"
       spreadMethod="pad"
       id="linearGradient94"><stop
         style="stop-opacity:1;stop-color:#656263"
         offset="0"
         id="stop90" /><stop
         style="stop-opacity:1;stop-color:#231f20"
         offset="1"
         id="stop92" /></linearGradient></defs><sodipodi:namedview
     pagecolor="#ffffff"
     bordercolor="#666666"
     borderopacity="1"
     objecttolerance="10"
     gridtolerance="10"
     guidetolerance="10"
     inkscape:pageopacity="0"
     inkscape:pageshadow="2"
     inkscape:window-width="640"
     inkscape:window-height="480"
     id="namedview4" /><g
     id="g10"
     inkscape:groupmode="layer"
     inkscape:label="FFVELO_logo_niveaux_gris"
     transform="matrix(1.3333333,0,0,-1.3333333,0,1083.44)"><g
       id="g12"><g
         id="g14"
         clip-path="url(#clipPath18)"><g
           id="g20"
           transform="translate(788.4121,401.8184)"><path
             d="m 0,0 c 0,-190.614 -190.074,-354.133 -365.635,-354.133 -201.021,0 -362.328,158.551 -362.328,354.133 0,195.582 162.96,354.133 363.982,354.133 C -162.96,354.133 0,193.29 0,0"
             style="fill:#ffffff;fill-opacity:1;fill-rule:nonzero;stroke:none"
             id="path22" /></g></g></g><g
       id="g24"><g
         id="g26"><g
           id="g32"><g
             id="g34"><path
               d="M 194.352,697.043 C 35.763,575.066 6.082,347.622 128.059,189.033 v 0 C 250.035,30.443 477.48,0.764 636.069,122.739 v 0 c 4.132,3.179 8.124,6.471 12.081,9.79 v 0 C 503.946,31.865 304.637,61.456 196.31,202.3 v 0 C 84.803,347.277 111.936,555.198 256.913,666.705 v 0 c 140.844,108.328 341.071,85.781 454.614,-48.517 v 0 c -2.972,4.222 -5.987,8.429 -9.166,12.562 v 0 C 631.017,723.508 523.574,772.166 414.949,772.172 v 0 c -77.09,0.004 -154.766,-24.497 -220.597,-75.129"
               style="fill:url(#linearGradient42);stroke:none"
               id="path44" /></g></g></g></g><g
       id="g46"><g
         id="g48"
         clip-path="url(#clipPath52)"><g
           id="g54"
           transform="translate(460.4062,505.8609)"><path
             d="m 0,0 c 0,0 21.606,2.575 21.522,31.859 h -99.428 v -162.373 l 0.553,0.243 c 0.25,0.444 0.565,1.001 0.809,1.431 3.458,6.115 6.331,11.148 8.619,15.098 2.279,3.951 4.044,6.918 5.277,8.895 1.232,1.973 2.04,3.206 2.412,3.702 3.669,4.81 9.202,7.832 16.412,9.236 v 31.221 H 10.89 v 31.892 h -54.714 v 28.764 z"
             style="fill:#656263;fill-opacity:1;fill-rule:nonzero;stroke:none"
             id="path56" /></g><g
           id="g58"
           transform="translate(534.3271,505.8286)"><path
             d="M 0,0 V -28.764 H 54.713 V -60.655 H 0 v -35.333 c 0,0 1.215,-18.688 -12.039,-24.806 l -22.044,-9.688 V 31.891 h 99.43 C 65.431,2.607 43.824,0.032 43.824,0.032 Z"
             style="fill:#656263;fill-opacity:1;fill-rule:nonzero;stroke:none"
             id="path60" /></g><g
           id="g62"
           transform="translate(205.73,278.9063)"><path
             d="M 0,0 C -9.408,22.442 -18.885,45.008 -28.431,67.707 H -7.54 c 2.322,0 4.595,-0.326 6.838,-0.969 2.234,-0.647 4.319,-1.591 6.256,-2.836 1.926,-1.25 3.646,-2.732 5.158,-4.452 1.502,-1.719 2.639,-3.612 3.409,-5.672 4.477,-10.747 8.924,-21.39 13.351,-31.919 4.427,-10.529 8.924,-21.172 13.479,-31.919 1.206,-2.836 2.322,-5.756 3.35,-8.765 1.028,-3.014 1.887,-6.577 2.579,-10.707 0,0.518 0.04,1.245 0.129,2.194 0.089,0.943 0.326,2.169 0.711,3.675 0.385,1.502 0.988,3.375 1.808,5.609 0.811,2.238 1.908,4.946 3.282,8.128 4.644,10.657 9.16,21.276 13.547,31.849 4.378,10.574 8.855,21.237 13.411,31.984 1.798,4.298 4.684,7.693 8.636,10.188 3.953,2.49 8.302,3.74 13.025,3.74 h 20.762 l -57,-135.537 H 28.569 C 18.944,-45.003 9.417,-22.437 0,0"
             style="fill:#393536;fill-opacity:1;fill-rule:nonzero;stroke:none"
             id="path64" /></g><g
           id="g66"
           transform="translate(423.4805,368.146)"><path
             d="m 0,0 c -3.607,-4.817 -9.714,-7.219 -18.312,-7.219 h -17.026 c 3.439,6.102 6.364,11.281 8.775,15.54 2.401,4.254 4.407,7.757 5.999,10.509 1.59,2.748 2.816,4.813 3.675,6.187 0.85,1.378 1.413,2.238 1.671,2.579 3.616,4.728 9.674,7.095 18.183,7.095 h 23.47 z m 10.316,-70.667 c -0.859,2.061 -2.173,4.23 -3.932,6.513 -1.759,2.273 -3.992,4.383 -6.71,6.315 -2.708,1.936 -5.841,3.547 -9.408,4.837 -3.567,1.289 -7.55,1.937 -11.928,1.937 -4.901,0 -9.289,-0.756 -13.152,-2.258 -3.874,-1.508 -7.244,-3.4 -10.129,-5.673 -2.876,-2.282 -5.218,-4.753 -7.027,-7.416 -1.808,-2.669 -3.053,-5.159 -3.735,-7.481 0.425,0.43 1.225,1.072 2.381,1.937 1.157,0.855 2.728,1.289 4.704,1.289 z m 35.596,-7.866 c 0,-3.528 -0.692,-6.601 -2.065,-9.224 -1.374,-2.624 -3.143,-4.793 -5.287,-6.513 -2.155,-1.719 -4.497,-3.009 -7.027,-3.869 -2.539,-0.859 -4.971,-1.289 -7.293,-1.289 h -80.469 c 0.435,-2.579 1.482,-5.499 3.163,-8.765 1.679,-3.271 3.952,-6.32 6.838,-9.156 2.875,-2.841 6.314,-5.223 10.316,-7.16 3.993,-1.931 8.529,-2.9 13.608,-2.9 3.093,0 6.186,0.405 9.28,1.225 3.092,0.816 5.978,1.952 8.636,3.414 1.898,1.117 3.825,1.913 5.811,2.387 1.976,0.474 4.081,0.712 6.314,0.712 3.351,0 6.365,-0.603 9.033,-1.809 2.658,-1.201 5.109,-2.92 7.342,-5.158 l 7.738,-7.866 c -7.303,-7.822 -15.604,-13.82 -24.883,-17.991 -9.289,-4.17 -19.043,-6.25 -29.271,-6.25 -9.635,0 -18.687,1.824 -27.146,5.48 -8.468,3.651 -15.87,8.617 -22.185,14.892 -6.315,6.275 -11.305,13.647 -14.961,22.116 -3.657,8.469 -5.475,17.476 -5.475,27.017 0,9.546 1.818,18.549 5.475,27.018 3.656,8.469 8.646,15.841 14.961,22.116 6.315,6.275 13.717,11.241 22.185,14.897 8.459,3.651 17.511,5.48 27.146,5.48 7.995,0 15.643,-1.334 22.947,-3.998 7.312,-2.668 13.953,-6.344 19.931,-11.028 5.969,-4.684 11.088,-10.208 15.337,-16.567 4.259,-6.365 7.372,-13.203 9.359,-20.506 0.335,-1.205 0.513,-2.386 0.513,-3.547 0,-1.161 0.04,-2.214 0.129,-3.158"
             style="fill:#393536;fill-opacity:1;fill-rule:nonzero;stroke:none"
             id="path68" /></g><g
           id="g70"
           transform="translate(534.248,389.022)"><path
             d="m 0,0 v -177.818 h -33.915 v 152.256 l 22.44,9.921 C -11.475,-15.641 0,-10.752 0,0"
             style="fill:#393536;fill-opacity:1;fill-rule:nonzero;stroke:none"
             id="path72" /></g><g
           id="g74"
           transform="translate(598.0859,278.7779)"><path
             d="m 0,0 c 0,-4.901 0.938,-9.541 2.836,-13.929 1.888,-4.383 4.467,-8.187 7.738,-11.408 3.261,-3.227 7.085,-5.787 11.473,-7.674 4.388,-1.892 9.032,-2.841 13.924,-2.841 4.901,0 9.546,0.949 13.933,2.841 4.378,1.887 8.202,4.447 11.473,7.674 3.271,3.221 5.851,7.025 7.738,11.408 1.888,4.388 2.836,9.028 2.836,13.929 0,4.985 -0.948,9.65 -2.836,13.993 -1.887,4.338 -4.467,8.143 -7.738,11.414 -3.271,3.266 -7.095,5.845 -11.473,7.738 -4.387,1.887 -9.032,2.835 -13.933,2.835 -4.892,0 -9.536,-0.948 -13.924,-2.835 C 17.659,31.252 13.835,28.673 10.574,25.407 7.303,22.136 4.724,18.331 2.836,13.993 0.938,9.65 0,4.985 0,0 m -33.529,0.128 c 0,9.546 1.818,18.549 5.474,27.018 3.657,8.469 8.647,15.861 14.961,22.18 6.315,6.32 13.717,11.305 22.186,14.962 8.459,3.651 17.47,5.479 27.008,5.479 9.546,0 18.547,-1.828 27.016,-5.479 8.47,-3.657 15.871,-8.642 22.186,-14.962 6.314,-6.319 11.304,-13.711 14.961,-22.18 3.646,-8.469 5.475,-17.472 5.475,-27.018 0,-9.541 -1.829,-18.548 -5.475,-27.017 -3.657,-8.469 -8.647,-15.861 -14.961,-22.18 -6.315,-6.32 -13.716,-11.306 -22.186,-14.957 -8.469,-3.656 -17.47,-5.479 -27.016,-5.479 -9.538,0 -18.549,1.823 -27.008,5.479 -8.469,3.651 -15.871,8.637 -22.186,14.957 -6.314,6.319 -11.304,13.711 -14.961,22.18 -3.656,8.469 -5.474,17.476 -5.474,27.017"
             style="fill:#393536;fill-opacity:1;fill-rule:nonzero;stroke:none"
             id="path76" /></g></g></g><g
       id="g78"><g
         id="g80"><g
           id="g86"><g
             id="g88"><path
               d="M 295.912,630.266 C 212.349,563.099 166.587,460.665 177.299,361.436 v 0 l 17.367,0.215 c 2.226,0.048 4.411,-0.217 6.575,-0.787 v 0 c 1.273,-0.339 2.483,-0.812 3.661,-1.353 v 0 c 0.569,80.31 35.84,159.708 103.32,213.95 v 0 c 119.174,95.792 293.439,76.838 389.232,-42.335 v 0 C 790.517,415.351 776.413,245.8 666.2,148.497 v 0 c 3.477,2.56 6.939,5.155 10.336,7.885 v 0 c 130.363,104.787 149.94,297.213 45.153,427.576 v 0 C 661.864,658.385 574.053,697.078 485.457,697.08 v 0 c -66.584,10e-4 -133.609,-21.852 -189.545,-66.814"
               style="fill:url(#linearGradient94);stroke:none"
               id="path96" /></g></g></g></g></g></svg>
