<?xml version="1.0" encoding="UTF-8" standalone="no"?>
<svg
   xmlns:dc="http://purl.org/dc/elements/1.1/"
   xmlns:cc="http://creativecommons.org/ns#"
   xmlns:rdf="http://www.w3.org/1999/02/22-rdf-syntax-ns#"
   xmlns:svg="http://www.w3.org/2000/svg"
   xmlns="http://www.w3.org/2000/svg"
   viewBox="0 0 566.92932 566.92932"
   height="566.92932"
   width="566.92932"
   xml:space="preserve"
   id="svg2"
   version="1.1"><metadata
     id="metadata8"><rdf:RDF><cc:Work
         rdf:about=""><dc:format>image/svg+xml</dc:format><dc:type
           rdf:resource="http://purl.org/dc/dcmitype/StillImage" /></cc:Work></rdf:RDF></metadata><defs
     id="defs6"><clipPath
       id="clipPath18"
       clipPathUnits="userSpaceOnUse"><path
         id="path16"
         d="M 0,425.197 H 425.197 V 0 H 0 Z" /></clipPath><linearGradient
       id="linearGradient40"
       spreadMethod="pad"
       gradientTransform="matrix(-172.05838,-215.81889,-215.81889,172.05838,293.36557,318.83197)"
       gradientUnits="userSpaceOnUse"
       y2="0"
       x2="1"
       y1="0"
       x1="0"><stop
         id="stop36"
         offset="0"
         style="stop-opacity:1;stop-color:#2b3786" /><stop
         id="stop38"
         offset="1"
         style="stop-opacity:1;stop-color:#359bd2" /></linearGradient><clipPath
       id="clipPath50"
       clipPathUnits="userSpaceOnUse"><path
         id="path48"
         d="M 0,425.197 H 425.197 V 0 H 0 Z" /></clipPath><linearGradient
       id="linearGradient92"
       spreadMethod="pad"
       gradientTransform="matrix(231.3546,0,0,-231.3546,120.09228,217.4644)"
       gradientUnits="userSpaceOnUse"
       y2="0"
       x2="1"
       y1="0"
       x1="0"><stop
         id="stop88"
         offset="0"
         style="stop-opacity:1;stop-color:#e31e2d" /><stop
         id="stop90"
         offset="1"
         style="stop-opacity:1;stop-color:#b6252c" /></linearGradient></defs><g
     transform="matrix(1.3333333,0,0,-1.3333333,0,566.92933)"
     id="g10"><g
       id="g12"><g
         clip-path="url(#clipPath18)"
         id="g14"><g
           transform="translate(351.2402,209.5524)"
           id="g20"><path
             id="path22"
             style="fill:#ffffff;fill-opacity:1;fill-rule:nonzero;stroke:none"
             d="m 0,0 c 0,-71.916 -71.713,-133.61 -137.95,-133.61 -75.843,0 -136.703,59.819 -136.703,133.61 0,73.792 61.483,133.611 137.327,133.611 C -61.483,133.611 0,72.927 0,0" /></g></g></g><g
       id="g24"><g
         id="g26"><g
           id="g32"><g
             id="g34"><path
               id="path42"
               style="fill:url(#linearGradient40);stroke:none"
               d="M 127.107,320.937 C 67.273,274.917 56.075,189.105 102.096,129.271 v 0 C 148.116,69.436 233.929,58.239 293.763,104.26 v 0 c 1.559,1.198 3.065,2.44 4.558,3.691 v 0 C 243.914,69.973 168.717,81.138 127.846,134.276 v 0 c -42.071,54.698 -31.833,133.145 22.865,175.216 v 0 c 53.139,40.871 128.682,32.364 171.521,-18.305 v 0 c -1.122,1.593 -2.259,3.18 -3.457,4.739 v 0 c -26.918,34.997 -67.455,53.355 -108.438,53.357 v 0 c -29.086,10e-4 -58.393,-9.243 -83.23,-28.346" /></g></g></g></g><g
       id="g44"><g
         clip-path="url(#clipPath50)"
         id="g46"><g
           transform="translate(227.4872,248.8068)"
           id="g52"><path
             id="path54"
             style="fill:#d32330;fill-opacity:1;fill-rule:nonzero;stroke:none"
             d="m 0,0 c 0,0 8.151,0.972 8.12,12.02 h -37.514 v -61.262 l 0.209,0.092 c 0.095,0.167 0.213,0.378 0.305,0.54 1.305,2.307 2.389,4.206 3.252,5.696 0.86,1.491 1.526,2.611 1.991,3.356 0.465,0.745 0.77,1.21 0.91,1.397 1.385,1.815 3.472,2.955 6.192,3.485 v 11.779 H 4.108 v 12.032 h -20.643 v 10.853 z" /></g><g
           transform="translate(255.3759,248.7946)"
           id="g56"><path
             id="path58"
             style="fill:#d32330;fill-opacity:1;fill-rule:nonzero;stroke:none"
             d="M 0,0 V -10.853 H 20.644 V -22.885 H 0 v -13.33 c 0,0 0.459,-7.051 -4.541,-9.359 l -8.317,-3.655 V 12.032 H 24.655 C 24.687,0.983 16.535,0.012 16.535,0.012 Z" /></g><g
           transform="translate(131.3998,163.1793)"
           id="g60"><path
             id="path62"
             style="fill:#2b3786;fill-opacity:1;fill-rule:nonzero;stroke:none"
             d="m 0,0 c -3.549,8.467 -7.125,16.98 -10.727,25.545 h 7.882 c 0.877,0 1.734,-0.123 2.58,-0.365 0.843,-0.244 1.63,-0.601 2.361,-1.071 0.727,-0.471 1.375,-1.031 1.946,-1.679 0.566,-0.649 0.995,-1.363 1.286,-2.14 1.689,-4.055 3.367,-8.07 5.037,-12.043 1.67,-3.973 3.367,-7.988 5.086,-12.043 0.454,-1.07 0.876,-2.172 1.263,-3.307 0.388,-1.137 0.713,-2.481 0.973,-4.04 0,0.197 0.016,0.47 0.049,0.829 0.034,0.355 0.123,0.818 0.268,1.386 0.146,0.567 0.373,1.274 0.683,2.116 0.306,0.844 0.719,1.866 1.238,3.067 1.752,4.02 3.456,8.027 5.111,12.016 1.652,3.99 3.341,8.012 5.06,12.067 0.678,1.622 1.767,2.903 3.258,3.845 1.492,0.939 3.132,1.411 4.915,1.411 h 7.833 L 24.596,-25.543 H 10.779 C 7.147,-16.979 3.553,-8.466 0,0" /></g><g
           transform="translate(213.5551,196.8483)"
           id="g64"><path
             id="path66"
             style="fill:#2b3786;fill-opacity:1;fill-rule:nonzero;stroke:none"
             d="m 0,0 c -1.361,-1.817 -3.665,-2.724 -6.909,-2.724 h -6.424 c 1.298,2.303 2.401,4.256 3.311,5.864 0.906,1.604 1.663,2.926 2.263,3.964 0.6,1.037 1.063,1.816 1.387,2.334 0.321,0.521 0.533,0.845 0.63,0.974 1.365,1.783 3.65,2.677 6.861,2.677 h 8.854 z m 3.892,-26.661 c -0.324,0.777 -0.82,1.596 -1.483,2.456 -0.664,0.858 -1.507,1.654 -2.532,2.383 -1.022,0.73 -2.204,1.339 -3.549,1.825 -1.347,0.486 -2.849,0.73 -4.501,0.73 -1.849,0 -3.504,-0.285 -4.962,-0.851 -1.462,-0.569 -2.733,-1.282 -3.822,-2.141 -1.085,-0.861 -1.968,-1.793 -2.65,-2.798 -0.683,-1.006 -1.153,-1.946 -1.41,-2.822 0.161,0.162 0.462,0.404 0.898,0.731 0.437,0.323 1.03,0.487 1.775,0.487 z m 13.43,-2.969 c 0,-1.33 -0.261,-2.49 -0.78,-3.48 -0.517,-0.99 -1.185,-1.808 -1.994,-2.456 -0.812,-0.65 -1.696,-1.136 -2.651,-1.46 -0.958,-0.325 -1.875,-0.487 -2.751,-0.487 h -30.36 c 0.164,-0.973 0.559,-2.075 1.193,-3.307 0.633,-1.235 1.491,-2.384 2.58,-3.454 1.085,-1.073 2.382,-1.971 3.892,-2.702 1.506,-0.729 3.217,-1.094 5.134,-1.094 1.167,0 2.334,0.153 3.501,0.463 1.167,0.307 2.256,0.736 3.259,1.288 0.716,0.421 1.443,0.721 2.192,0.9 0.746,0.179 1.54,0.269 2.382,0.269 1.264,0 2.402,-0.228 3.408,-0.683 1.003,-0.453 1.927,-1.102 2.77,-1.946 l 2.919,-2.968 c -2.755,-2.951 -5.887,-5.214 -9.388,-6.787 -3.504,-1.574 -7.184,-2.359 -11.043,-2.359 -3.635,0 -7.05,0.688 -10.242,2.068 -3.195,1.378 -5.988,3.251 -8.37,5.618 -2.383,2.368 -4.265,5.149 -5.645,8.345 -1.379,3.195 -2.065,6.593 -2.065,10.193 0,3.602 0.686,6.998 2.065,10.193 1.38,3.196 3.262,5.977 5.645,8.344 2.382,2.368 5.175,4.241 8.37,5.621 3.192,1.377 6.607,2.068 10.242,2.068 3.016,0 5.902,-0.504 8.657,-1.509 2.759,-1.006 5.264,-2.394 7.52,-4.16 2.252,-1.768 4.184,-3.852 5.787,-6.251 1.607,-2.402 2.782,-4.982 3.531,-7.737 0.127,-0.455 0.194,-0.9 0.194,-1.338 0,-0.438 0.015,-0.835 0.048,-1.192" /></g><g
           transform="translate(255.3466,204.7243)"
           id="g68"><path
             id="path70"
             style="fill:#2b3786;fill-opacity:1;fill-rule:nonzero;stroke:none"
             d="M 0,0 V -67.088 H -12.796 V -9.644 L -4.329,-5.9 C -4.329,-5.9 0,-4.056 0,0" /></g><g
           transform="translate(279.4316,163.1305)"
           id="g72"><path
             id="path74"
             style="fill:#2b3786;fill-opacity:1;fill-rule:nonzero;stroke:none"
             d="m 0,0 c 0,-1.849 0.354,-3.6 1.07,-5.255 0.712,-1.653 1.686,-3.089 2.92,-4.305 1.23,-1.216 2.673,-2.182 4.328,-2.894 1.656,-0.715 3.409,-1.072 5.254,-1.072 1.849,0 3.602,0.357 5.257,1.072 1.651,0.712 3.095,1.678 4.328,2.894 1.235,1.216 2.207,2.652 2.92,4.305 0.712,1.655 1.069,3.406 1.069,5.255 0,1.881 -0.357,3.641 -1.069,5.279 -0.713,1.637 -1.685,3.073 -2.92,4.307 -1.233,1.232 -2.677,2.205 -4.328,2.919 -1.655,0.713 -3.408,1.07 -5.257,1.07 -1.845,0 -3.598,-0.357 -5.254,-1.07 C 6.663,11.791 5.22,10.818 3.99,9.586 2.756,8.352 1.782,6.916 1.07,5.279 0.354,3.641 0,1.881 0,0 m -12.65,0.049 c 0,3.601 0.686,6.998 2.066,10.193 1.379,3.196 3.262,5.985 5.645,8.368 2.381,2.385 5.174,4.266 8.37,5.645 3.191,1.378 6.591,2.067 10.189,2.067 3.602,0 6.998,-0.689 10.193,-2.067 3.196,-1.379 5.989,-3.26 8.371,-5.645 2.382,-2.383 4.265,-5.172 5.645,-8.368 1.375,-3.195 2.066,-6.592 2.066,-10.193 0,-3.6 -0.691,-6.998 -2.066,-10.194 -1.38,-3.195 -3.263,-5.984 -5.645,-8.368 -2.382,-2.384 -5.175,-4.265 -8.371,-5.643 -3.195,-1.379 -6.591,-2.068 -10.193,-2.068 -3.598,0 -6.998,0.689 -10.189,2.068 -3.196,1.378 -5.989,3.259 -8.37,5.643 -2.383,2.384 -4.266,5.173 -5.645,8.368 -1.38,3.196 -2.066,6.594 -2.066,10.194" /></g></g></g><g
       id="g76"><g
         id="g78"><g
           id="g84"><g
             id="g86"><path
               id="path94"
               style="fill:url(#linearGradient92);stroke:none"
               d="M 165.424,295.744 C 133.897,270.402 116.632,231.755 120.673,194.317 v 0 l 6.553,0.081 c 0.839,0.017 1.664,-0.082 2.48,-0.297 v 0 c 0.481,-0.128 0.937,-0.307 1.382,-0.51 v 0 c 0.215,30.3 13.522,60.256 38.981,80.721 v 0 c 44.964,36.141 110.712,28.991 146.853,-15.973 v 0 c 35.112,-43.681 29.79,-107.651 -11.791,-144.362 v 0 c 1.313,0.966 2.618,1.945 3.899,2.974 v 0 c 49.184,39.536 56.572,112.136 17.036,161.321 v 0 c -22.571,28.081 -55.701,42.679 -89.128,42.68 v 0 c -25.121,10e-4 -50.409,-8.244 -71.514,-25.208" /></g></g></g></g></g></svg>