<?xml version="1.0" encoding="UTF-8" standalone="no"?>
<svg
   xmlns:dc="http://purl.org/dc/elements/1.1/"
   xmlns:cc="http://creativecommons.org/ns#"
   xmlns:rdf="http://www.w3.org/1999/02/22-rdf-syntax-ns#"
   xmlns:svg="http://www.w3.org/2000/svg"
   xmlns="http://www.w3.org/2000/svg"
   xmlns:sodipodi="http://sodipodi.sourceforge.net/DTD/sodipodi-0.dtd"
   xmlns:inkscape="http://www.inkscape.org/namespaces/inkscape"
   width="24"
   height="24"
   viewBox="0 0 24 24"
   version="1.1"
   id="svg4"
   sodipodi:docname="marker-check-orange.svg"
   inkscape:version="1.0.2-2 (e86c870879, 2021-01-15)">
  <metadata
     id="metadata10">
    <rdf:RDF>
      <cc:Work
         rdf:about="">
        <dc:format>image/svg+xml</dc:format>
        <dc:type
           rdf:resource="http://purl.org/dc/dcmitype/StillImage" />
        <dc:title></dc:title>
      </cc:Work>
    </rdf:RDF>
  </metadata>
  <defs
     id="defs8" />
  <sodipodi:namedview
     pagecolor="#ffffff"
     bordercolor="#666666"
     borderopacity="1"
     objecttolerance="10"
     gridtolerance="10"
     guidetolerance="10"
     inkscape:pageopacity="0"
     inkscape:pageshadow="2"
     inkscape:window-width="1920"
     inkscape:window-height="1017"
     id="namedview6"
     showgrid="false"
     inkscape:zoom="24.911314"
     inkscape:cx="8.1950394"
     inkscape:cy="10.821793"
     inkscape:window-x="-8"
     inkscape:window-y="-8"
     inkscape:window-maximized="1"
     inkscape:current-layer="layer1" />
  <g
     inkscape:groupmode="layer"
     id="layer2"
     inkscape:label="Layer 2"
     style="display:inline">
    <path
       style="fill:#ffffff;stroke:none;stroke-width:1px;stroke-linecap:butt;stroke-linejoin:miter;stroke-opacity:1"
       d="M 5.9410757,3.2916771 9.995459,1.2845569 14.009699,1.0035601 c 0,0 2.528971,1.1239873 2.689541,1.2845569 0.160569,0.1605696 2.569114,2.1676898 2.569114,2.1676898 l 1.284557,2.8501106 0.521851,3.3318196 -0.602136,2.649398 -1.565554,2.127548 -1.84655,2.368402 -4.536092,1.645838 -3.2113924,-0.240854 c 0,0 -3.9339555,-2.528972 -4.0543827,-2.769826 C 5.1382277,16.177389 3.5325315,13.046281 3.4923891,12.805427 3.4522467,12.564572 2.7296834,7.9080535 2.7296834,7.9080535 L 3.974098,5.1783701 Z"
       id="path885"
       sodipodi:nodetypes="cccsccccccccssccc" />
  </g>
  <path
     d="M 12,0 C 6.478,0 2,4.395 2,9.815 2,15.32 6.375,19.083 12,24 17.625,19.083 22,15.32 22,9.815 22,4.395 17.522,0 12,0 Z m 0,18 C 7.581,18 4,14.418 4,10 4,5.582 7.581,2 12,2 c 4.419,0 8,3.582 8,8 0,4.418 -3.581,8 -8,8 z"
     id="path2"
     sodipodi:nodetypes="sscsssssss"
     style="fill:#e14b00;fill-opacity:1" />
  <g
     inkscape:groupmode="layer"
     id="layer1"
     inkscape:label="Layer 1"
     style="display:inline">
    <path
       d="M 17,8.4149999 11.292,14.042 7.5860004,10.415 9.0000004,8.9999999 11.291,11.213 15.586,6.9999999 Z"
       id="path2-8"
       sodipodi:nodetypes="ccccccc"
       style="opacity:1;fill:#e14b00;fill-opacity:1" />
  </g>
</svg>
