<?xml version="1.0" encoding="UTF-8" standalone="no"?>
<svg
   xmlns:dc="http://purl.org/dc/elements/1.1/"
   xmlns:cc="http://creativecommons.org/ns#"
   xmlns:rdf="http://www.w3.org/1999/02/22-rdf-syntax-ns#"
   xmlns:svg="http://www.w3.org/2000/svg"
   xmlns="http://www.w3.org/2000/svg"
   xmlns:sodipodi="http://sodipodi.sourceforge.net/DTD/sodipodi-0.dtd"
   xmlns:inkscape="http://www.inkscape.org/namespaces/inkscape"
   version="1.1"
   id="svg2"
   xml:space="preserve"
   width="762.29999"
   height="479.64267"
   viewBox="0 0 762.29999 479.64267"
   sodipodi:docname="FFVelo_Federation_droite.ai"><metadata
     id="metadata8"><rdf:RDF><cc:Work
         rdf:about=""><dc:format>image/svg+xml</dc:format><dc:type
           rdf:resource="http://purl.org/dc/dcmitype/StillImage" /></cc:Work></rdf:RDF></metadata><defs
     id="defs6"><clipPath
       clipPathUnits="userSpaceOnUse"
       id="clipPath18"><path
         d="M 0,359.732 H 571.725 V 0 H 0 Z"
         id="path16" /></clipPath><linearGradient
       x1="0"
       y1="0"
       x2="1"
       y2="0"
       gradientUnits="userSpaceOnUse"
       gradientTransform="matrix(-124.64374,-156.34503,-156.34503,124.64374,240.75989,257.8428)"
       spreadMethod="pad"
       id="linearGradient40"><stop
         style="stop-opacity:1;stop-color:#162983"
         offset="0"
         id="stop36" /><stop
         style="stop-opacity:1;stop-color:#2799d1"
         offset="1"
         id="stop38" /></linearGradient><clipPath
       clipPathUnits="userSpaceOnUse"
       id="clipPath50"><path
         d="M 0,359.732 H 571.725 V 0 H 0 Z"
         id="path48" /></clipPath><linearGradient
       x1="0"
       y1="0"
       x2="1"
       y2="0"
       gradientUnits="userSpaceOnUse"
       gradientTransform="matrix(167.59952,0,0,-167.59952,115.23602,184.40942)"
       spreadMethod="pad"
       id="linearGradient92"><stop
         style="stop-opacity:1;stop-color:#e2001a"
         offset="0"
         id="stop88" /><stop
         style="stop-opacity:1;stop-color:#b40717"
         offset="1"
         id="stop90" /></linearGradient><clipPath
       clipPathUnits="userSpaceOnUse"
       id="clipPath102"><path
         d="M 0,359.732 H 571.725 V 0 H 0 Z"
         id="path100" /></clipPath></defs><sodipodi:namedview
     pagecolor="#ffffff"
     bordercolor="#666666"
     borderopacity="1"
     objecttolerance="10"
     gridtolerance="10"
     guidetolerance="10"
     inkscape:pageopacity="0"
     inkscape:pageshadow="2"
     inkscape:window-width="640"
     inkscape:window-height="480"
     id="namedview4" /><g
     id="g10"
     inkscape:groupmode="layer"
     inkscape:label="FFVelo_Federation_droite"
     transform="matrix(1.3333333,0,0,-1.3333333,0,479.64267)"><g
       id="g12"><g
         id="g14"
         clip-path="url(#clipPath18)"><g
           id="g20"
           transform="translate(282.686,178.6781)"><path
             d="m 0,0 c 0,-52.098 -51.951,-96.791 -99.935,-96.791 -54.943,0 -99.031,43.334 -99.031,96.791 0,53.456 44.54,96.791 99.483,96.791 C -44.54,96.791 0,52.83 0,0"
             style="fill:#ffffff;fill-opacity:1;fill-rule:nonzero;stroke:none"
             id="path22" /></g></g></g><g
       id="g24"><g
         id="g26"><g
           id="g32"><g
             id="g34"><path
               d="M 120.317,259.368 C 76.973,226.03 68.86,163.865 102.199,120.52 v 0 C 135.537,77.174 197.701,69.062 241.047,102.4 v 0 c 1.13,0.87 2.221,1.769 3.303,2.676 v 0 C 204.936,77.562 150.461,85.65 120.853,124.145 v 0 C 90.376,163.77 97.792,220.6 137.416,251.077 v 0 c 38.496,29.608 93.223,23.445 124.255,-13.261 v 0 c -0.812,1.154 -1.636,2.304 -2.504,3.433 v 0 c -19.5,25.353 -48.867,38.652 -78.556,38.654 v 0 c -21.071,10e-4 -42.301,-6.696 -60.294,-20.535"
               style="fill:url(#linearGradient40);stroke:none"
               id="path42" /></g></g></g></g><g
       id="g44"><g
         id="g46"
         clip-path="url(#clipPath50)"><g
           id="g52"
           transform="translate(193.0356,207.1147)"><path
             d="m 0,0 c 0,0 5.905,0.704 5.883,8.708 h -27.176 v -44.38 l 0.151,0.067 c 0.068,0.121 0.154,0.273 0.221,0.391 0.945,1.671 1.731,3.047 2.356,4.126 0.623,1.08 1.105,1.891 1.442,2.431 0.337,0.54 0.558,0.877 0.659,1.012 1.003,1.315 2.515,2.141 4.486,2.524 v 8.534 H 2.977 v 8.716 h -14.955 v 7.862 z"
             style="fill:#d2011f;fill-opacity:1;fill-rule:nonzero;stroke:none"
             id="path54" /></g><g
           id="g56"
           transform="translate(213.2397,207.1059)"><path
             d="m 0,0 v -7.862 h 14.954 v -8.716 H 0 v -9.657 c 0,0 0.332,-5.108 -3.29,-6.78 l -6.025,-2.648 V 8.716 H 17.86 C 17.883,0.712 11.978,0.009 11.978,0.009 Z"
             style="fill:#d2011f;fill-opacity:1;fill-rule:nonzero;stroke:none"
             id="path58" /></g><g
           id="g60"
           transform="translate(123.4277,145.0839)"><path
             d="m 0,0 c -2.571,6.134 -5.162,12.301 -7.771,18.505 h 5.71 c 0.635,0 1.256,-0.089 1.869,-0.264 0.61,-0.177 1.18,-0.435 1.71,-0.776 0.526,-0.341 0.997,-0.746 1.41,-1.216 0.41,-0.47 0.721,-0.987 0.931,-1.551 1.224,-2.937 2.439,-5.846 3.65,-8.724 1.21,-2.877 2.439,-5.787 3.684,-8.724 0.329,-0.775 0.635,-1.573 0.915,-2.396 0.281,-0.824 0.516,-1.797 0.705,-2.926 0,0.142 0.011,0.341 0.035,0.599 0.025,0.258 0.089,0.593 0.195,1.005 0.105,0.411 0.27,0.923 0.494,1.533 0.222,0.612 0.522,1.352 0.897,2.222 1.269,2.912 2.503,5.815 3.703,8.705 1.196,2.89 2.42,5.804 3.665,8.741 0.491,1.175 1.28,2.103 2.361,2.785 1.08,0.681 2.269,1.023 3.56,1.023 h 5.674 L 17.818,-18.504 H 7.809 C 5.178,-12.301 2.574,-6.133 0,0"
             style="fill:#162983;fill-opacity:1;fill-rule:nonzero;stroke:none"
             id="path62" /></g><g
           id="g64"
           transform="translate(182.9428,169.4745)"><path
             d="m 0,0 c -0.986,-1.316 -2.655,-1.973 -5.005,-1.973 h -4.653 c 0.94,1.668 1.739,3.083 2.398,4.247 0.656,1.163 1.205,2.121 1.639,2.873 0.435,0.75 0.77,1.315 1.005,1.69 0.233,0.377 0.387,0.612 0.457,0.705 0.988,1.293 2.644,1.94 4.97,1.94 h 6.415 z m 2.82,-19.314 c -0.235,0.563 -0.594,1.156 -1.075,1.779 -0.481,0.622 -1.091,1.199 -1.834,1.726 -0.74,0.53 -1.596,0.97 -2.571,1.323 -0.975,0.352 -2.064,0.529 -3.26,0.529 -1.34,0 -2.539,-0.207 -3.595,-0.617 -1.059,-0.412 -1.98,-0.929 -2.769,-1.551 -0.786,-0.624 -1.426,-1.299 -1.92,-2.027 -0.494,-0.729 -0.835,-1.41 -1.021,-2.044 0.116,0.117 0.335,0.293 0.651,0.529 0.316,0.234 0.745,0.353 1.285,0.353 z m 9.729,-2.15 c 0,-0.965 -0.19,-1.805 -0.565,-2.521 -0.376,-0.718 -0.859,-1.311 -1.445,-1.781 -0.589,-0.469 -1.228,-0.822 -1.92,-1.057 -0.694,-0.235 -1.358,-0.353 -1.993,-0.353 h -21.994 c 0.118,-0.705 0.405,-1.503 0.864,-2.395 0.459,-0.894 1.081,-1.728 1.869,-2.502 0.786,-0.778 1.726,-1.428 2.82,-1.957 1.091,-0.529 2.331,-0.793 3.719,-0.793 0.846,0 1.691,0.11 2.536,0.335 0.846,0.222 1.634,0.533 2.361,0.933 0.518,0.305 1.045,0.523 1.588,0.652 0.54,0.13 1.115,0.195 1.726,0.195 0.916,0 1.739,-0.165 2.468,-0.495 0.727,-0.328 1.397,-0.798 2.008,-1.409 l 2.114,-2.151 C 6.709,-38.9 4.44,-40.54 1.904,-41.68 c -2.539,-1.139 -5.204,-1.708 -8,-1.708 -2.633,0 -5.107,0.498 -7.419,1.497 -2.315,0.998 -4.338,2.356 -6.064,4.071 -1.726,1.716 -3.09,3.73 -4.089,6.045 -0.999,2.314 -1.497,4.776 -1.497,7.384 0,2.609 0.498,5.07 1.497,7.385 0.999,2.314 2.363,4.329 4.089,6.044 1.726,1.715 3.749,3.073 6.064,4.072 2.312,0.998 4.786,1.497 7.419,1.497 2.185,0 4.276,-0.364 6.272,-1.092 1.998,-0.729 3.813,-1.734 5.448,-3.014 1.631,-1.28 3.03,-2.79 4.191,-4.528 1.164,-1.74 2.015,-3.609 2.558,-5.605 0.092,-0.329 0.141,-0.652 0.141,-0.97 0,-0.317 0.01,-0.605 0.035,-0.862"
             style="fill:#162983;fill-opacity:1;fill-rule:nonzero;stroke:none"
             id="path66" /></g><g
           id="g68"
           transform="translate(213.2182,175.1806)"><path
             d="m 0,0 v -48.601 h -9.27 v 41.614 l 6.133,2.712 C -3.137,-4.275 0,-2.939 0,0"
             style="fill:#162983;fill-opacity:1;fill-rule:nonzero;stroke:none"
             id="path70" /></g><g
           id="g72"
           transform="translate(230.6664,145.0488)"><path
             d="m 0,0 c 0,-1.34 0.256,-2.607 0.774,-3.808 0.517,-1.197 1.222,-2.237 2.116,-3.118 0.891,-0.882 1.936,-1.581 3.135,-2.096 1.2,-0.518 2.469,-0.777 3.806,-0.777 1.34,0 2.609,0.259 3.809,0.777 1.196,0.515 2.241,1.214 3.135,2.096 0.894,0.881 1.599,1.921 2.115,3.118 0.516,1.201 0.775,2.468 0.775,3.808 0,1.362 -0.259,2.637 -0.775,3.824 C 18.374,5.01 17.669,6.05 16.775,6.944 15.881,7.836 14.836,8.542 13.64,9.059 12.44,9.575 11.171,9.834 9.831,9.834 8.494,9.834 7.225,9.575 6.025,9.059 4.826,8.542 3.781,7.836 2.89,6.944 1.996,6.05 1.291,5.01 0.774,3.824 0.256,2.637 0,1.362 0,0 m -9.165,0.035 c 0,2.609 0.497,5.069 1.497,7.384 0.999,2.315 2.363,4.335 4.089,6.062 1.725,1.728 3.749,3.09 6.063,4.09 2.313,0.998 4.776,1.497 7.382,1.497 2.61,0 5.07,-0.499 7.385,-1.497 2.314,-1 4.337,-2.362 6.063,-4.09 1.726,-1.727 3.09,-3.747 4.089,-6.062 0.997,-2.315 1.496,-4.775 1.496,-7.384 0,-2.608 -0.499,-5.07 -1.496,-7.385 -0.999,-2.314 -2.363,-4.335 -4.089,-6.062 -1.726,-1.727 -3.749,-3.09 -6.063,-4.088 -2.315,-0.999 -4.775,-1.497 -7.385,-1.497 -2.606,0 -5.069,0.498 -7.382,1.497 -2.314,0.998 -4.338,2.361 -6.063,4.088 -1.726,1.727 -3.09,3.748 -4.089,6.062 -1,2.315 -1.497,4.777 -1.497,7.385"
             style="fill:#162983;fill-opacity:1;fill-rule:nonzero;stroke:none"
             id="path74" /></g></g></g><g
       id="g76"><g
         id="g78"><g
           id="g84"><g
             id="g86"><path
               d="M 148.076,241.117 C 125.237,222.759 112.73,194.762 115.657,167.641 v 0 l 4.747,0.059 c 0.608,0.013 1.205,-0.06 1.796,-0.215 v 0 c 0.349,-0.093 0.68,-0.223 1.001,-0.37 v 0 c 0.156,21.95 9.796,43.651 28.24,58.476 v 0 c 32.572,26.182 80.202,21.002 106.385,-11.571 v 0 c 25.436,-31.644 21.581,-77.985 -8.543,-104.58 v 0 c 0.951,0.7 1.896,1.409 2.825,2.156 v 0 c 35.631,28.64 40.981,81.233 12.342,116.864 v 0 c -16.352,20.342 -40.353,30.918 -64.568,30.919 v 0 c -18.199,0 -36.517,-5.973 -51.806,-18.262"
               style="fill:url(#linearGradient92);stroke:none"
               id="path94" /></g></g></g></g><g
       id="g96"><g
         id="g98"
         clip-path="url(#clipPath102)"><g
           id="g104"
           transform="translate(322.4877,189.1811)"><path
             d="M 0,0 V -3.286 H 2.986 V -3.825 H 0 V -8.503 H -0.576 V 0.54 H 3.07 V 0 Z"
             style="fill:#162983;fill-opacity:1;fill-rule:nonzero;stroke:none"
             id="path106" /></g><g
           id="g108"
           transform="translate(331.3539,192.516)"><path
             d="m 0,0 -1.487,-1.739 -0.456,0.204 1.212,1.763 z M -2.459,-3.335 V -6.621 H 1.187 V -7.16 h -3.646 v -4.138 h 3.742 v -0.54 h -4.317 v 9.043 h 4.317 v -0.54 z"
             style="fill:#162983;fill-opacity:1;fill-rule:nonzero;stroke:none"
             id="path110" /></g><g
           id="g112"
           transform="translate(337.102,181.2182)"><path
             d="M 0,0 C 1.187,0 2.171,0.239 3.035,1.091 3.803,1.858 4.234,2.89 4.234,3.97 4.234,5.121 3.778,6.2 2.927,6.979 2.063,7.76 1.128,7.963 0,7.963 H -1.043 V 0 Z m -1.618,8.503 h 1.631 c 1.319,0 2.362,-0.216 3.358,-1.14 C 4.318,6.477 4.81,5.265 4.81,3.97 4.81,2.723 4.33,1.535 3.419,0.659 2.423,-0.3 1.355,-0.54 0.013,-0.54 h -1.631 z"
             style="fill:#162983;fill-opacity:1;fill-rule:nonzero;stroke:none"
             id="path114" /></g><g
           id="g116"
           transform="translate(347.4213,192.516)"><path
             d="m 0,0 -1.487,-1.739 -0.455,0.204 1.211,1.763 z M -2.458,-3.335 V -6.621 H 1.187 V -7.16 h -3.645 v -4.138 h 3.741 v -0.54 h -4.317 v 9.043 h 4.317 v -0.54 z"
             style="fill:#162983;fill-opacity:1;fill-rule:nonzero;stroke:none"
             id="path118" /></g><g
           id="g120"
           transform="translate(352.8578,185.4994)"><path
             d="M 0,0 C 0.563,0 1.128,0.024 1.583,0.42 2.015,0.768 2.219,1.308 2.219,1.847 2.219,2.519 1.907,3.19 1.26,3.479 0.779,3.706 0.168,3.682 -0.359,3.682 H -0.731 V 0 Z M 3.166,-4.821 H 2.507 l -2.95,4.281 H -0.731 V -4.821 H -1.307 V 4.222 H -0.18 C 0.552,4.222 1.271,4.21 1.883,3.766 2.531,3.311 2.795,2.591 2.795,1.823 2.795,0.252 1.703,-0.563 0.204,-0.54 Z"
             style="fill:#162983;fill-opacity:1;fill-rule:nonzero;stroke:none"
             id="path122" /></g><g
           id="g124"
           transform="translate(361.3657,188.558)"><path
             d="M 0,0 -1.775,-4.366 H 1.763 Z M -1.991,-4.905 -3.203,-7.88 H -3.79 L 0,1.463 3.777,-7.88 H 3.189 l -1.21,2.975 z"
             style="fill:#162983;fill-opacity:1;fill-rule:nonzero;stroke:none"
             id="path126" /></g><g
           id="g128"
           transform="translate(368.3159,180.6781)"><path
             d="m 0,0 h -0.576 v 8.503 h -2.339 v 0.54 H 2.339 V 8.503 H 0 Z"
             style="fill:#162983;fill-opacity:1;fill-rule:nonzero;stroke:none"
             id="path130" /></g><path
           d="m 373.357,180.678 h -0.576 v 9.043 h 0.576 z"
           style="fill:#162983;fill-opacity:1;fill-rule:nonzero;stroke:none"
           id="path132" /><g
           id="g134"
           transform="translate(376.4164,185.1996)"><path
             d="m 0,0 c 0,-2.23 1.859,-4.102 4.114,-4.102 2.242,0 4.114,1.883 4.114,4.102 0,2.23 -1.872,4.102 -4.114,4.102 C 1.859,4.102 0,2.23 0,0 m 8.804,0 c 0,-2.543 -2.148,-4.642 -4.69,-4.642 -2.543,0 -4.689,2.099 -4.689,4.642 0,2.543 2.135,4.642 4.689,4.642 2.542,0 4.69,-2.099 4.69,-4.642"
             style="fill:#162983;fill-opacity:1;fill-rule:nonzero;stroke:none"
             id="path136" /></g><g
           id="g138"
           transform="translate(395.8764,180.3783)"><path
             d="M 0,0 -7.592,8.071 V 0.3 H -8.167 V 9.463 L -0.575,1.451 V 9.343 H 0 Z"
             style="fill:#162983;fill-opacity:1;fill-rule:nonzero;stroke:none"
             id="path140" /></g><g
           id="g142"
           transform="translate(404.2797,189.1811)"><path
             d="M 0,0 V -3.286 H 2.986 V -3.825 H 0 V -8.503 H -0.575 V 0.54 H 3.07 L 3.07,0 Z"
             style="fill:#162983;fill-opacity:1;fill-rule:nonzero;stroke:none"
             id="path144" /></g><g
           id="g146"
           transform="translate(411.4194,185.4994)"><path
             d="M 0,0 C 0.564,0 1.128,0.024 1.584,0.42 2.016,0.768 2.219,1.308 2.219,1.847 2.219,2.519 1.907,3.19 1.26,3.479 0.78,3.706 0.168,3.682 -0.359,3.682 H -0.731 V 0 Z m 3.167,-4.821 h -0.66 l -2.95,4.281 H -0.731 V -4.821 H -1.307 V 4.222 H -0.18 C 0.552,4.222 1.271,4.21 1.884,3.766 2.531,3.311 2.795,2.591 2.795,1.823 2.795,0.252 1.703,-0.563 0.204,-0.54 Z"
             style="fill:#162983;fill-opacity:1;fill-rule:nonzero;stroke:none"
             id="path148" /></g><g
           id="g150"
           transform="translate(419.9262,188.558)"><path
             d="M 0,0 -1.774,-4.366 H 1.764 Z M -1.99,-4.905 -3.202,-7.88 H -3.79 L 0,1.463 3.778,-7.88 H 3.19 l -1.211,2.975 z"
             style="fill:#162983;fill-opacity:1;fill-rule:nonzero;stroke:none"
             id="path152" /></g><g
           id="g154"
           transform="translate(433.9877,180.3783)"><path
             d="M 0,0 -7.592,8.071 V 0.3 H -8.167 V 9.463 L -0.575,1.451 V 9.343 H 0 Z"
             style="fill:#162983;fill-opacity:1;fill-rule:nonzero;stroke:none"
             id="path156" /></g><g
           id="g158"
           transform="translate(440.0395,178.4838)"><path
             d="M 0,0 -0.456,0.228 0.659,1.954 1.331,1.69 Z m 4.161,9.391 c -0.695,0.851 -1.919,1.426 -3.034,1.426 -2.255,0 -4.113,-1.942 -4.113,-4.161 0,-1.055 0.455,-2.051 1.211,-2.795 0.755,-0.719 1.835,-1.247 2.902,-1.247 1.044,0 2.362,0.564 3.034,1.379 V 3.202 C 3.31,2.494 2.267,2.074 1.151,2.074 c -2.518,0 -4.714,2.099 -4.714,4.63 0,2.567 2.16,4.653 4.726,4.653 1.092,0 2.194,-0.431 2.998,-1.175 z"
             style="fill:#162983;fill-opacity:1;fill-rule:nonzero;stroke:none"
             id="path160" /></g><g
           id="g162"
           transform="translate(449.8432,188.558)"><path
             d="M 0,0 -1.774,-4.366 H 1.764 Z M -1.99,-4.905 -3.202,-7.88 H -3.79 L 0,1.463 3.778,-7.88 H 3.19 l -1.211,2.975 z"
             style="fill:#162983;fill-opacity:1;fill-rule:nonzero;stroke:none"
             id="path164" /></g><path
           d="m 456.312,180.678 h -0.575 v 9.043 h 0.575 z"
           style="fill:#162983;fill-opacity:1;fill-rule:nonzero;stroke:none"
           id="path166" /><g
           id="g168"
           transform="translate(463.5219,188.2338)"><path
             d="m 0,0 c -0.408,0.647 -0.983,1.067 -1.835,1.067 -0.972,0 -1.703,-0.779 -1.703,-1.726 0,-0.948 0.899,-1.344 1.631,-1.692 L -0.18,-3.25 c 0.684,-0.432 1.032,-0.983 1.032,-1.799 0,-1.499 -1.368,-2.627 -2.831,-2.627 -1.259,0 -2.243,0.78 -2.663,1.944 l 0.504,0.227 c 0.384,-0.959 1.092,-1.631 2.183,-1.631 1.187,0 2.23,0.936 2.23,2.135 0,1.02 -1.043,1.451 -1.822,1.835 l -1.632,0.863 c -0.599,0.372 -0.935,0.9 -0.935,1.619 0,1.344 0.96,2.291 2.315,2.291 0.911,0 1.775,-0.492 2.206,-1.271 z"
             style="fill:#162983;fill-opacity:1;fill-rule:nonzero;stroke:none"
             id="path170" /></g><g
           id="g172"
           transform="translate(467.519,189.1811)"><path
             d="M 0,0 V -3.286 H 3.646 V -3.825 H 0 v -4.138 h 3.742 v -0.54 H -0.575 V 0.54 H 3.742 V 0 Z"
             style="fill:#162983;fill-opacity:1;fill-rule:nonzero;stroke:none"
             id="path174" /></g><g
           id="g176"
           transform="translate(323.5073,166.8188)"><path
             d="M 0,0 C 1.187,0 2.171,0.239 3.035,1.091 3.803,1.858 4.234,2.89 4.234,3.97 4.234,5.121 3.778,6.2 2.927,6.979 2.063,7.76 1.128,7.963 0,7.963 H -1.043 V 0 Z m -1.618,8.503 h 1.631 c 1.319,0 2.362,-0.216 3.358,-1.14 C 4.318,6.477 4.81,5.265 4.81,3.97 4.81,2.722 4.33,1.535 3.419,0.659 2.423,-0.3 1.355,-0.54 0.013,-0.54 h -1.631 z"
             style="fill:#162983;fill-opacity:1;fill-rule:nonzero;stroke:none"
             id="path178" /></g><g
           id="g180"
           transform="translate(332.9282,174.7817)"><path
             d="M 0,0 V -3.286 H 3.646 V -3.825 H 0 v -4.138 h 3.742 v -0.54 H -0.575 V 0.54 H 3.742 V 0 Z"
             style="fill:#162983;fill-opacity:1;fill-rule:nonzero;stroke:none"
             id="path182" /></g><g
           id="g184"
           transform="translate(354.6196,173.475)"><path
             d="m 0,0 c -0.695,0.852 -1.919,1.427 -3.034,1.427 -2.255,0 -4.113,-1.943 -4.113,-4.161 0,-1.056 0.456,-2.051 1.21,-2.795 0.756,-0.72 1.835,-1.247 2.903,-1.247 1.044,0 2.363,0.563 3.034,1.379 v -0.791 c -0.851,-0.708 -1.895,-1.128 -3.01,-1.128 -2.518,0 -4.714,2.098 -4.714,4.629 0,2.567 2.16,4.654 4.726,4.654 1.092,0 2.195,-0.432 2.998,-1.176 z"
             style="fill:#162983;fill-opacity:1;fill-rule:nonzero;stroke:none"
             id="path186" /></g><g
           id="g188"
           transform="translate(358.0209,175.3217)"><path
             d="M 0,0 H 0.636 L 3.298,-4.581 5.961,0 H 6.597 L 3.586,-5.181 V -9.043 H 3.01 v 3.862 z"
             style="fill:#162983;fill-opacity:1;fill-rule:nonzero;stroke:none"
             id="path190" /></g><g
           id="g192"
           transform="translate(375.476,173.475)"><path
             d="m 0,0 c -0.695,0.852 -1.919,1.427 -3.034,1.427 -2.255,0 -4.113,-1.943 -4.113,-4.161 0,-1.056 0.456,-2.051 1.21,-2.795 0.756,-0.72 1.835,-1.247 2.903,-1.247 1.044,0 2.363,0.563 3.034,1.379 v -0.791 c -0.851,-0.708 -1.895,-1.128 -3.01,-1.128 -2.518,0 -4.714,2.098 -4.714,4.629 0,2.567 2.16,4.654 4.726,4.654 1.092,0 2.195,-0.432 2.998,-1.176 z"
             style="fill:#162983;fill-opacity:1;fill-rule:nonzero;stroke:none"
             id="path194" /></g><g
           id="g196"
           transform="translate(380.3764,166.8188)"><path
             d="M 0,0 H 2.303 V -0.54 H -0.576 V 8.503 H 0 Z"
             style="fill:#162983;fill-opacity:1;fill-rule:nonzero;stroke:none"
             id="path198" /></g><g
           id="g200"
           transform="translate(386.3998,170.8002)"><path
             d="m 0,0 c 0,-2.23 1.859,-4.102 4.114,-4.102 2.242,0 4.114,1.883 4.114,4.102 0,2.23 -1.872,4.102 -4.114,4.102 C 1.859,4.102 0,2.23 0,0 m 8.804,0 c 0,-2.543 -2.148,-4.642 -4.69,-4.642 -2.543,0 -4.689,2.099 -4.689,4.642 0,2.543 2.135,4.642 4.689,4.642 2.542,0 4.69,-2.099 4.69,-4.642"
             style="fill:#162983;fill-opacity:1;fill-rule:nonzero;stroke:none"
             id="path202" /></g><g
           id="g204"
           transform="translate(401.267,166.2787)"><path
             d="m 0,0 h -0.575 v 8.503 h -2.339 v 0.54 H 2.339 V 8.503 H 0 Z"
             style="fill:#162983;fill-opacity:1;fill-rule:nonzero;stroke:none"
             id="path206" /></g><g
           id="g208"
           transform="translate(407.3286,170.8002)"><path
             d="m 0,0 c 0,-2.23 1.858,-4.102 4.113,-4.102 2.243,0 4.115,1.883 4.115,4.102 0,2.23 -1.872,4.102 -4.115,4.102 C 1.858,4.102 0,2.23 0,0 m 8.803,0 c 0,-2.543 -2.147,-4.642 -4.69,-4.642 -2.543,0 -4.689,2.099 -4.689,4.642 0,2.543 2.135,4.642 4.689,4.642 2.543,0 4.69,-2.099 4.69,-4.642"
             style="fill:#162983;fill-opacity:1;fill-rule:nonzero;stroke:none"
             id="path210" /></g><g
           id="g212"
           transform="translate(425.6606,175.3217)"><path
             d="m 0,0 h 0.576 v -5.637 c 0,-0.924 0,-1.715 -0.612,-2.47 -0.611,-0.696 -1.547,-1.056 -2.458,-1.056 -0.912,0 -1.847,0.36 -2.459,1.056 -0.611,0.755 -0.611,1.546 -0.611,2.47 V 0 h 0.575 v -5.469 c 0,-0.815 0,-1.679 0.468,-2.279 0.444,-0.575 1.331,-0.875 2.027,-0.875 0.695,0 1.583,0.3 2.026,0.875 C 0,-7.148 0,-6.284 0,-5.469 Z"
             style="fill:#162983;fill-opacity:1;fill-rule:nonzero;stroke:none"
             id="path214" /></g><g
           id="g216"
           transform="translate(432.0463,171.1)"><path
             d="M 0,0 C 0.564,0 1.128,0.024 1.584,0.42 2.016,0.768 2.219,1.308 2.219,1.847 2.219,2.519 1.907,3.19 1.26,3.479 0.78,3.706 0.168,3.682 -0.359,3.682 H -0.731 V 0 Z m 3.167,-4.821 h -0.66 l -2.95,4.281 H -0.731 V -4.821 H -1.307 V 4.222 H -0.18 C 0.552,4.222 1.271,4.21 1.884,3.766 2.531,3.311 2.795,2.591 2.795,1.823 2.795,0.252 1.703,-0.563 0.204,-0.54 Z"
             style="fill:#162983;fill-opacity:1;fill-rule:nonzero;stroke:none"
             id="path218" /></g><path
           d="m 439.81,166.279 h -0.575 v 9.043 h 0.575 z"
           style="fill:#162983;fill-opacity:1;fill-rule:nonzero;stroke:none"
           id="path220" /><g
           id="g222"
           transform="translate(448.5805,173.8344)"><path
             d="m 0,0 c -0.408,0.647 -0.983,1.067 -1.835,1.067 -0.972,0 -1.703,-0.779 -1.703,-1.726 0,-0.947 0.899,-1.344 1.631,-1.692 L -0.18,-3.25 c 0.684,-0.432 1.032,-0.983 1.032,-1.799 0,-1.499 -1.368,-2.627 -2.831,-2.627 -1.259,0 -2.243,0.78 -2.663,1.944 l 0.504,0.227 c 0.384,-0.959 1.092,-1.631 2.183,-1.631 1.187,0 2.23,0.936 2.23,2.135 0,1.02 -1.043,1.451 -1.822,1.835 l -1.632,0.863 c -0.599,0.372 -0.935,0.9 -0.935,1.619 0,1.344 0.96,2.291 2.315,2.291 0.911,0 1.775,-0.492 2.206,-1.271 z"
             style="fill:#162983;fill-opacity:1;fill-rule:nonzero;stroke:none"
             id="path224" /></g><g
           id="g226"
           transform="translate(461.143,173.7631)"><path
             d="M 0,0 H -0.024 L -3.179,-7.784 -6.321,0 h -0.024 l -1.548,-7.484 h -0.55 l 1.942,9.342 3.322,-8.227 3.334,8.227 1.944,-9.342 H 1.547 Z"
             style="fill:#162983;fill-opacity:1;fill-rule:nonzero;stroke:none"
             id="path228" /></g><g
           id="g230"
           transform="translate(467.5414,174.7817)"><path
             d="M 0,0 V -3.286 H 3.646 V -3.825 H 0 v -4.138 h 3.742 v -0.54 H -0.575 V 0.54 H 3.742 V 0 Z"
             style="fill:#162983;fill-opacity:1;fill-rule:nonzero;stroke:none"
             id="path232" /></g></g></g></g></svg>
