<?xml version="1.0" encoding="UTF-8" standalone="no"?>
<svg
   xmlns:dc="http://purl.org/dc/elements/1.1/"
   xmlns:cc="http://creativecommons.org/ns#"
   xmlns:rdf="http://www.w3.org/1999/02/22-rdf-syntax-ns#"
   xmlns:svg="http://www.w3.org/2000/svg"
   xmlns="http://www.w3.org/2000/svg"
   xmlns:sodipodi="http://sodipodi.sourceforge.net/DTD/sodipodi-0.dtd"
   xmlns:inkscape="http://www.inkscape.org/namespaces/inkscape"
   width="544.51294mm"
   height="544.51294mm"
   viewBox="0 0 544.51294 544.51294"
   version="1.1"
   id="svg863"
   inkscape:version="1.0.2-2 (e86c870879, 2021-01-15)"
   sodipodi:docname="light.svg">
  <defs
     id="defs857" />
  <sodipodi:namedview
     id="base"
     pagecolor="#ffffff"
     bordercolor="#666666"
     borderopacity="1.0"
     inkscape:pageopacity="0.0"
     inkscape:pageshadow="2"
     inkscape:zoom="0.11431244"
     inkscape:cx="1385.5732"
     inkscape:cy="626.86413"
     inkscape:document-units="px"
     inkscape:current-layer="layer1"
     inkscape:document-rotation="0"
     showgrid="false"
     inkscape:window-width="1920"
     inkscape:window-height="1017"
     inkscape:window-x="-8"
     inkscape:window-y="-8"
     inkscape:window-maximized="1"
     fit-margin-top="0"
     fit-margin-left="0"
     fit-margin-right="0"
     fit-margin-bottom="0" />
  <metadata
     id="metadata860">
    <rdf:RDF>
      <cc:Work
         rdf:about="">
        <dc:format>image/svg+xml</dc:format>
        <dc:type
           rdf:resource="http://purl.org/dc/dcmitype/StillImage" />
        <dc:title></dc:title>
      </cc:Work>
    </rdf:RDF>
  </metadata>
  <g
     inkscape:label="Calque 1"
     inkscape:groupmode="layer"
     id="layer1"
     transform="translate(-687.74354,-267.74354)">
    <g
       id="g883"
       transform="matrix(8.5080148,0,0,8.5080148,687.74354,267.74354)"
       style="fill:#f0f7f4;fill-opacity:1">
      <path
         d="M 32,0 C 25.2,0 18.7,2.1 13.2,6.1 12.8,6.4 12.7,7.1 13,7.5 13.3,7.9 14,8 14.4,7.7 19.5,4 25.6,2 32,2 48.5,2 62,15.5 62,32 62,48.5 48.5,62 32,62 15.5,62 2,48.5 2,32 2,24.8 4.6,17.8 9.3,12.4 9.7,12 9.6,11.4 9.2,11 8.8,10.6 8.2,10.7 7.8,11.1 2.8,16.9 0,24.3 0,32 0,49.6 14.4,64 32,64 49.6,64 64,49.6 64,32 64,14.4 49.6,0 32,0 Z"
         id="path879"
         style="fill:#f0f7f4;fill-opacity:1" />
      <path
         d="m 55.6,40.2 c 0.5,0.2 1.1,-0.1 1.2,-0.7 0.7,-2.4 1.1,-5 1.1,-7.5 C 58,17.7 46.3,6 32,6 17.7,6 6,17.7 6,32 6,46.3 17.7,58 32,58 41.5,58 50.2,52.8 54.8,44.5 55.1,44 54.9,43.4 54.4,43.1 53.9,42.8 53.3,43 53,43.5 c -0.9,1.7 -2.1,3.3 -3.4,4.7 L 36.2,34.8 c 0.3,-0.5 0.6,-1.1 0.7,-1.8 H 56 c -0.1,2 -0.4,4 -1,6 -0.2,0.5 0.1,1 0.6,1.2 z M 31,27.1 c -0.6,0.1 -1.2,0.4 -1.8,0.7 L 15.8,14.3 C 19.8,10.6 25.2,8.2 31,8 Z m -3.2,2.1 c -0.3,0.5 -0.6,1.1 -0.7,1.8 H 8 C 8.2,25.1 10.6,19.8 14.3,15.8 Z M 27.1,33 c 0.1,0.6 0.4,1.2 0.7,1.8 L 14.3,48.2 C 10.6,44.2 8.2,38.8 8,33 Z m 2.1,3.2 c 0.5,0.3 1.1,0.6 1.8,0.7 V 56 C 25.1,55.8 19.8,53.4 15.8,49.7 Z m 3.8,0.7 c 0.6,-0.1 1.2,-0.4 1.8,-0.7 L 48.3,49.7 C 44.2,53.5 38.8,55.8 33.1,56 V 36.9 Z M 32,35 c -1.7,0 -3,-1.3 -3,-3 0,-1.7 1.3,-3 3,-3 1.7,0 3,1.3 3,3 0,1.7 -1.3,3 -3,3 z m 4.2,-5.8 4.5,-4.5 c 0.4,-0.4 0.4,-1 0,-1.4 -0.4,-0.4 -1,-0.4 -1.4,0 l -4.5,4.5 C 34.3,27.5 33.7,27.2 33,27.1 V 8 c 5.9,0.2 11.2,2.6 15.2,6.3 L 42,20.5 c -0.4,0.4 -0.4,1 0,1.4 0.2,0.2 0.5,0.3 0.7,0.3 0.2,0 0.5,-0.1 0.7,-0.3 l 6.2,-6.2 c 3.7,4 6.1,9.4 6.3,15.2 h -19 c -0.1,-0.5 -0.4,-1.1 -0.7,-1.7 z"
         id="path881"
         style="fill:#f0f7f4;fill-opacity:1" />
    </g>
    <g
       id="g877"
       transform="matrix(0.70745389,0,0,0.70745389,778.89181,344.07577)"
       style="fill:#b40818;fill-opacity:1;stroke:#f0f7f4;stroke-opacity:1">
      <path
         d="M 350.54,148.68 323.92,106.62 C 318.31,100.08 310.62,96 302,96 h -92 c -8.62,0 -16.31,4.08 -21.92,10.62 l -26.62,42.06 C 155.85,155.23 148.62,160 140,160 H 80 a 32,32 0 0 0 -32,32 v 192 a 32,32 0 0 0 32,32 h 352 a 32,32 0 0 0 32,-32 V 192 a 32,32 0 0 0 -32,-32 h -59 c -8.65,0 -16.85,-4.77 -22.46,-11.32 z"
         fill="none"
         stroke="currentColor"
         stroke-linecap="round"
         stroke-linejoin="round"
         stroke-width="32"
         id="path860"
         style="fill:#b40818;fill-opacity:1;stroke:#f0f7f4;stroke-opacity:1" />
      <circle
         cx="256"
         cy="272"
         r="80"
         fill="none"
         stroke="currentColor"
         stroke-miterlimit="10"
         stroke-width="32"
         id="circle862"
         style="fill:#b40818;fill-opacity:1;stroke:#f0f7f4;stroke-opacity:1" />
      <path
         fill="none"
         stroke="currentColor"
         stroke-linecap="round"
         stroke-linejoin="round"
         stroke-width="32"
         d="m 124,158 v -22 h -24 v 22"
         id="path864"
         style="fill:#b40818;fill-opacity:1;stroke:#f0f7f4;stroke-opacity:1" />
    </g>
  </g>
</svg>
